<svg width="55" height="56" viewBox="0 0 55 56" version="1.1" xmlns="http://www.w3.org/2000/svg"><title>icon_whatsapp_white</title><g id="Page-1" stroke="none" stroke-width="1" fill="none" fill-rule="evenodd"><g id="1.-home" transform="translate(-1015 -579)" fill="#FFF"><g id="banner" transform="translate(382 107)"><g id="whataspp" transform="translate(554 347)"><g id="icon_whatsapp_white" transform="translate(72 119)"><g id="WhatsApp-Vector-Icons-02" transform="translate(7.438 6.73)"><path d="M27.919.053c-14.723 0-26.655 11.84-26.655 26.45a26.17 26.17 0 0 0 3.822 13.652L.276 54.35l14.758-4.685a26.729 26.729 0 0 0 12.881 3.286c14.727 0 26.659-11.84 26.659-26.449 0-14.61-11.932-26.445-26.655-26.449zm0 48.687a22.401 22.401 0 0 1-12.336-3.676l-8.606 2.748 2.798-8.255a22.008 22.008 0 0 1-4.25-13.033c0-12.265 10.051-22.239 22.408-22.239 12.357 0 22.415 9.974 22.412 22.231-.004 12.258-10.073 22.224-22.43 22.224h.004zm12.208-16.9c-.648-.326-3.864-1.892-4.462-2.104-.599-.213-1.038-.33-1.474.322-.435.652-1.682 2.107-2.068 2.543-.386.436-.762.489-1.417.17a17.928 17.928 0 0 1-5.256-3.22 19.419 19.419 0 0 1-3.633-4.49c-.386-.648-.04-.999.283-1.321.322-.322.655-.758.981-1.137.269-.32.49-.679.655-1.063a1.204 1.204 0 0 0-.056-1.136c-.163-.326-1.467-3.514-2.016-4.81-.549-1.296-1.087-1.084-1.47-1.084-.382 0-.814-.053-1.25-.053a2.405 2.405 0 0 0-1.742.808 7.267 7.267 0 0 0-2.285 5.408c0 3.187 2.338 6.272 2.667 6.704.33.432 4.523 7.193 11.164 9.79 6.64 2.595 6.644 1.728 7.841 1.618 1.197-.11 3.867-1.57 4.41-3.081.541-1.513.545-2.834.378-3.092-.166-.259-.598-.447-1.253-.772h.003z" id="Shape" fill-rule="nonzero"/></g></g></g></g></g></g></svg>