<svg width="31" height="32" viewBox="0 0 31 32" version="1.1" xmlns="http://www.w3.org/2000/svg" xmlns:xlink="http://www.w3.org/1999/xlink"><title>icon_ig_hover</title><defs><path id="path-1" d="M.484.263h30.251v31.089H.484z"/></defs><g id="icon_ig_hover" stroke="none" stroke-width="1" fill="none" fill-rule="evenodd"><g id="Group"><g id="Group-12"><mask id="mask-2" fill="#fff"><use xlink:href="#path-1"/></mask><path d="M21.854 31.352H9.364c-4.896 0-8.88-3.984-8.88-8.881V9.144c0-4.898 3.984-8.88 8.88-8.88h12.49c4.897 0 8.881 3.982 8.881 8.88v13.327c0 4.897-3.984 8.88-8.88 8.88zM9.364 2.54a6.61 6.61 0 0 0-6.602 6.604v13.327a6.61 6.61 0 0 0 6.603 6.604h12.49a6.61 6.61 0 0 0 6.602-6.604V9.144a6.61 6.61 0 0 0-6.603-6.604H9.364z" id="Fill-10" fill="#425CC7" mask="url(#mask-2)"/></g><path d="M15.61 24.024c-4.554 0-8.26-3.706-8.26-8.26 0-2.244.923-4.43 2.532-5.993 1.569-1.523 3.618-2.33 5.768-2.266 2.57.077 4.705.942 6.171 2.507 1.39 1.483 2.097 3.483 2.047 5.782a8.457 8.457 0 0 1-2.446 5.806 8.125 8.125 0 0 1-5.812 2.424m-.191-13.738c-1.337 0-2.61.522-3.598 1.482a5.606 5.606 0 0 0-1.688 3.996 5.482 5.482 0 0 0 5.477 5.476c3.002 0 5.409-2.419 5.476-5.507.034-1.556-.414-2.877-1.295-3.818-.949-1.011-2.409-1.575-4.221-1.628l-.151-.001" id="Fill-13" fill="#425CC7"/><path d="M25.995 7.272a1.925 1.925 0 1 1-3.853 0 1.926 1.926 0 1 1 3.853 0" id="Fill-15" fill="#425CC7"/></g></g></svg>