<svg width="16" height="15" viewBox="0 0 16 15" version="1.1" xmlns="http://www.w3.org/2000/svg"><title>Fill 1</title><g id="Page-1" stroke="none" stroke-width="1" fill="none" fill-rule="evenodd"><g id="1.-home" transform="translate(-712 -962)" fill="#FF595A"><g id="propuesta-de-valor" transform="translate(412 856)"><g id="Group-4" transform="translate(114 106)"><g id="Group-10" transform="translate(147.5)"><path d="M41.61 9.483c.645-.558 1.545-.986 2.66-1.244-1.286 0-2.402-.129-3.217-.386-1.16-.387-1.845-1.073-1.845-2.275 0-2.017 1.502-2.532 2.703-2.403 1.374.13 2.446 1.33 3.346 2.232-.642-1.073-1.158-2.489-1.03-3.562C44.315.772 45.002 0 46.675 0c1.588 0 2.232.686 2.404 1.673.128 1.03-.258 2.36-.731 3.52 1.117-.988 2.576-1.932 3.563-1.932 1.416 0 2.403.902 2.403 2.66 0 1.674-1.16 2.404-3.004 2.404a8.411 8.411 0 0 1-1.76-.172c.816.387 1.716.944 2.36 1.631 1.675 1.931.644 4.463-1.845 4.463-1.03 0-1.802-.6-2.403-1.416-.515-.687-.86-1.588-1.072-2.447-.215.945-.515 1.803-.945 2.447-.557.858-1.287 1.416-2.317 1.416-2.875 0-3.648-3.047-1.716-4.764" id="Fill-1"/></g></g></g></g></g></svg>