<svg width="32" height="33" viewBox="0 0 32 33" version="1.1" xmlns="http://www.w3.org/2000/svg" xmlns:xlink="http://www.w3.org/1999/xlink"><title>instagram</title><defs><path id="path-1" d="M0 1.154h31.275v32.55H0z"/></defs><g id="Page-1" stroke="none" stroke-width="1" fill="none" fill-rule="evenodd"><g id="1.-home" transform="translate(-222 -1615)"><g id="instagram" transform="translate(222 1609)"><g transform="translate(0 5)" id="Group-8"><g id="Group-3" transform="translate(0 .143)"><mask id="mask-2" fill="#fff"><use xlink:href="#path-1"/></mask><path d="M22.094 33.703H9.181C4.12 33.703 0 29.533 0 24.406V10.452C0 5.324 4.119 1.153 9.18 1.153h12.913c5.062 0 9.181 4.17 9.181 9.299v13.954c0 5.127-4.119 9.297-9.181 9.297zM9.181 3.537c-3.764 0-6.826 3.102-6.826 6.915v13.954c0 3.813 3.062 6.914 6.826 6.914h12.913c3.764 0 6.826-3.101 6.826-6.914V10.452c0-3.813-3.062-6.915-6.826-6.915H9.181z" id="Fill-1" fill="#425CC7" mask="url(#mask-2)"/></g><path d="M15.638 26.174c-4.708 0-8.54-3.88-8.54-8.648 0-2.35.954-4.638 2.618-6.275 1.622-1.594 3.74-2.438 5.964-2.372 2.657.079 4.864.986 6.38 2.625 1.437 1.553 2.168 3.646 2.115 6.054-.048 2.306-.947 4.464-2.528 6.078a8.348 8.348 0 0 1-6.01 2.538m-.196-14.384c-1.383 0-2.699.547-3.72 1.552a5.904 5.904 0 0 0-1.745 4.184c0 3.162 2.54 5.734 5.662 5.734 3.104 0 5.592-2.533 5.661-5.766.036-1.63-.427-3.013-1.339-3.998-.98-1.059-2.49-1.649-4.363-1.704-.053-.002-.104-.002-.156-.002" id="Fill-4" fill="#425CC7"/><path d="M26.375 8.635c0 1.113-.891 2.017-1.992 2.017s-1.992-.904-1.992-2.017c0-1.114.891-2.017 1.992-2.017 1.1 0 1.992.903 1.992 2.017" id="Fill-6" fill="#425CC7"/></g></g></g></g></svg>