<svg width="32" height="32" viewBox="0 0 32 32" version="1.1" xmlns="http://www.w3.org/2000/svg"><title>icon_fb_hover</title><g id="icon_fb_hover" stroke="none" stroke-width="1" fill="none" fill-rule="evenodd"><g id="Group-17" fill="#425CC7"><path d="M10.496 11.91h2.454V9.524c0-1.052.03-2.676.791-3.68.805-1.059 1.91-1.783 3.809-1.783 3.09 0 4.396.44 4.396.44l-.61 3.634s-1.023-.294-1.977-.294c-.955 0-1.81.343-1.81 1.298v2.771h3.91l-.268 3.55H17.55V27.79h-4.6V15.46h-2.454v-3.55z" id="Fill-6"/><path d="M19.194 31.317H7.234c-3.528 0-6.4-2.872-6.404-6.403V6.936c.003-3.529 2.875-6.4 6.4-6.4h17.978c3.532 0 6.406 2.871 6.406 6.4v17.978a6.408 6.408 0 0 1-6.402 6.403h-6.018zm-3.007-2.214h9.025c2.269 0 4.188-1.917 4.188-4.189V6.936c0-2.267-1.919-4.186-4.192-4.186H7.229c-2.267 0-4.182 1.92-4.184 4.186v17.978c.002 2.272 1.919 4.189 4.188 4.189h8.954z" id="Fill-8"/></g></g></svg>