<svg width="11" height="10" viewBox="0 0 11 10" version="1.1" xmlns="http://www.w3.org/2000/svg"><title>Fill 4</title><g id="Page-1" stroke="none" stroke-width="1" fill="none" fill-rule="evenodd"><g id="1.-home" transform="translate(-756 -964)" fill="#FF595A"><g id="propuesta-de-valor" transform="translate(412 856)"><g id="Group-4" transform="translate(114 106)"><g id="Group-10" transform="translate(147.5)"><path d="M84.793 8.737c.44-.381 1.057-.674 1.82-.851-.882 0-1.644-.087-2.201-.264-.793-.264-1.263-.733-1.263-1.555 0-1.379 1.028-1.731 1.85-1.642.939.086 1.672.909 2.288 1.525-.44-.734-.791-1.702-.705-2.436.06-.733.529-1.261 1.674-1.261 1.085 0 1.525.469 1.642 1.144.089.704-.174 1.614-.498 2.405.762-.673 1.76-1.319 2.435-1.319.969 0 1.645.615 1.645 1.819 0 1.144-.794 1.643-2.055 1.643a5.76 5.76 0 0 1-1.203-.117c.558.263 1.174.645 1.614 1.115 1.145 1.32.439 3.052-1.263 3.052-.703 0-1.231-.411-1.642-.969-.353-.47-.587-1.085-.734-1.672-.147.646-.352 1.233-.645 1.672-.383.587-.88.969-1.585.969-1.966 0-2.495-2.084-1.174-3.258" id="Fill-4"/></g></g></g></g></g></svg>