<svg width="20" height="26" viewBox="0 0 20 26" version="1.1" xmlns="http://www.w3.org/2000/svg"><title>Shape</title><g id="Page-1" stroke="none" stroke-width="1" fill="none" fill-rule="evenodd"><g id="3.-encuentranos" transform="translate(-863 -598)" fill="#FCDC3E" fill-rule="nonzero"><g id="pointers" transform="translate(550 529)"><path d="M332.512 75.764c-.923-2.955-3.355-5.362-6.34-6.276a10.9 10.9 0 0 0-3.17-.488c-2.139 0-4.2.655-5.924 1.935-2.555 1.858-4.078 4.83-4.078 7.967 0 2.164.692 4.22 2 5.942L323.002 95l8.002-10.156c1.954-2.59 2.508-5.896 1.508-9.08zm-9.51 8.47c-2.97 0-5.386-2.391-5.386-5.332 0-2.94 2.416-5.332 5.386-5.332s5.386 2.392 5.386 5.332-2.416 5.332-5.386 5.332z" id="Shape"/></g></g></g></svg>