<svg width="20" height="16" viewBox="0 0 20 16" version="1.1" xmlns="http://www.w3.org/2000/svg"><title>Icons/Person</title><g id="Icons/Person" stroke="none" stroke-width="1" fill="none" fill-rule="evenodd"><path d="M15.829 8.276c3.752.666 4.243 1.718 4.302 5.41.004.236.006.277.007.256v.287S19.244 16 14.069 16s-6.068-1.771-6.068-1.771v-.375c.001 0 .004-.06.008-.288.069-3.595.589-4.631 4.3-5.29 0 0 .529.662 1.76.662 1.231 0 1.76-.662 1.76-.662zM14.069 0c2.824 0 3.31 1.73 3.31 3.862 0 2.133-1.482 3.862-3.31 3.862s-3.31-1.729-3.31-3.862S11.245 0 14.069 0z" id="person-ico" fill="#FF595A" fill-rule="nonzero"/></g></svg>