<svg width="970" height="970" viewBox="0 0 970 970" version="1.1" xmlns="http://www.w3.org/2000/svg"><title>texture_01 copy 2</title><g id="Page-1" stroke="none" stroke-width="1" fill="none" fill-rule="evenodd" opacity=".179"><g id="3.-encuentranos" transform="translate(-235 -123)" fill="#ECECEC"><g id="texture_01" transform="translate(235 123)"><g id="Group-10"><path d="M484.975 10.125c-64.107 0-126.293 12.554-184.832 37.314-56.544 23.916-107.327 58.156-150.938 101.765-43.61 43.612-77.85 94.395-101.766 150.939-24.76 58.54-37.314 120.725-37.314 184.832 0 64.106 12.555 126.293 37.314 184.832 23.916 56.543 58.155 107.327 101.766 150.938 43.611 43.61 94.394 77.85 150.938 101.766 58.54 24.76 120.725 37.315 184.832 37.315s126.293-12.556 184.83-37.315c56.545-23.915 107.329-58.156 150.94-101.766 43.61-43.611 77.85-94.395 101.766-150.938 24.76-58.54 37.314-120.726 37.314-184.832 0-64.107-12.554-126.292-37.314-184.832-23.916-56.544-58.155-107.327-101.767-150.939-43.61-43.609-94.394-77.849-150.938-101.765-58.538-24.76-120.724-37.314-184.831-37.314m0 959.825c-65.47 0-128.982-12.822-188.777-38.114-57.75-24.426-109.615-59.393-154.152-103.932-44.538-44.537-79.505-96.402-103.932-154.153C12.824 613.958 0 550.445 0 484.975c0-65.469 12.823-128.982 38.114-188.776 24.427-57.75 59.394-109.615 103.932-154.153 44.537-44.538 96.401-79.505 154.152-103.931C355.993 12.823 419.505 0 484.975 0c65.469 0 128.982 12.823 188.775 38.115 57.752 24.426 109.616 59.393 154.154 103.93 44.538 44.539 79.505 96.403 103.931 154.154 25.292 59.794 38.114 123.307 38.114 188.776 0 65.47-12.822 128.983-38.114 188.776-24.426 57.75-59.393 109.616-103.931 154.153-44.538 44.539-96.402 79.506-154.154 103.932-59.793 25.292-123.306 38.114-188.775 38.114" id="Fill-1"/><path d="M484.975 60.47c-57.312 0-112.905 11.223-165.234 33.356-50.548 21.379-95.948 51.99-134.937 90.979-38.989 38.99-69.599 84.389-90.979 134.936C71.692 372.07 60.47 427.663 60.47 484.975c0 57.312 11.222 112.905 33.355 165.234 21.38 50.549 51.99 95.948 90.98 134.937 38.988 38.988 84.388 69.598 134.936 90.979 52.329 22.133 107.922 33.356 165.234 33.356 57.313 0 112.904-11.223 165.233-33.356 50.55-21.38 95.948-51.99 134.938-90.98 38.989-38.988 69.599-84.387 90.978-134.936 22.134-52.329 33.356-107.922 33.356-165.234 0-57.312-11.222-112.904-33.356-165.234-21.38-50.547-51.99-95.946-90.978-134.936-38.99-38.989-84.389-69.6-134.938-90.98C597.88 71.694 542.288 60.47 484.975 60.47m0 869.26c-60.038 0-118.284-11.76-173.122-34.955-52.962-22.4-100.525-54.469-141.368-95.31-40.842-40.843-72.909-88.406-95.31-141.368C51.98 603.259 40.22 545.013 40.22 484.975c0-60.037 11.76-118.283 34.955-173.121 22.401-52.963 54.468-100.527 95.31-141.368 40.843-40.843 88.406-72.91 141.368-95.31C366.69 51.98 424.937 40.22 484.975 40.22c60.037 0 118.283 11.76 173.122 34.955 52.962 22.4 100.525 54.467 141.367 95.31 40.842 40.841 72.91 88.405 95.31 141.368 23.195 54.838 34.955 113.084 34.955 173.121 0 60.038-11.76 118.284-34.955 173.122-22.4 52.962-54.468 100.525-95.31 141.368-40.842 40.841-88.405 72.91-141.367 95.31-54.839 23.194-113.085 34.955-173.122 34.955" id="Fill-4"/><path d="M484.975 151.141c-45.074 0-88.791 8.825-129.938 26.229-39.752 16.812-75.455 40.886-106.118 71.549-30.664 30.663-54.737 66.366-71.55 106.118-17.404 41.146-26.229 84.864-26.229 129.939 0 45.073 8.825 88.79 26.229 129.937 16.813 39.752 40.886 75.456 71.55 106.119 30.663 30.663 66.366 54.736 106.118 71.55 41.147 17.402 84.864 26.227 129.938 26.227 45.074 0 88.79-8.825 129.939-26.228 39.751-16.813 75.454-40.886 106.117-71.55 30.663-30.662 54.736-66.366 71.55-106.118 17.403-41.146 26.228-84.864 26.228-129.937 0-45.075-8.825-88.793-26.229-129.94-16.813-39.75-40.886-75.454-71.55-106.117-30.662-30.663-66.365-54.737-106.116-71.55-41.148-17.403-84.865-26.228-129.94-26.228m0 696.524c-48.955 0-96.456-9.592-141.179-28.508-43.19-18.269-81.977-44.417-115.28-77.72-33.304-33.305-59.454-72.091-77.722-115.282-18.916-44.723-28.508-92.223-28.508-141.18 0-48.957 9.592-96.457 28.508-141.18 18.268-43.19 44.418-81.977 77.722-115.281 33.303-33.304 72.09-59.453 115.28-77.721 44.723-18.917 92.224-28.507 141.18-28.507 48.957 0 96.456 9.59 141.179 28.507 43.19 18.268 81.977 44.417 115.281 77.72 33.304 33.305 59.453 72.093 77.721 115.282 18.917 44.723 28.508 92.223 28.508 141.18 0 48.957-9.59 96.457-28.508 141.18-18.268 43.19-44.417 81.977-77.72 115.281-33.305 33.304-72.092 59.452-115.282 77.721-44.723 18.916-92.222 28.508-141.18 28.508" id="Fill-6"/><path d="M484.975 103.872c-51.45 0-101.36 10.076-148.34 29.948-45.381 19.195-86.14 46.673-121.14 81.675-35.002 35.002-62.48 75.759-81.676 121.14-19.87 46.98-29.946 96.889-29.946 148.34 0 51.45 10.076 101.36 29.946 148.34 19.196 45.382 46.674 86.138 81.676 121.14 35 35.002 75.759 62.481 121.14 81.676 46.98 19.872 96.89 29.945 148.34 29.945s101.359-10.073 148.34-29.945c45.382-19.195 86.138-46.674 121.14-81.676 35.002-35.002 62.48-75.758 81.675-121.14 19.872-46.98 29.947-96.89 29.947-148.34 0-51.451-10.075-101.36-29.947-148.34-19.195-45.381-46.673-86.138-81.675-121.14-35.002-35.002-75.758-62.48-121.14-81.675-46.981-19.872-96.89-29.948-148.34-29.948m0 772.33c-52.813 0-104.05-10.345-152.285-30.746-46.587-19.705-88.426-47.913-124.354-83.84-35.927-35.93-64.136-77.768-83.841-124.356-20.402-48.237-30.746-99.472-30.746-152.284 0-52.814 10.344-104.05 30.746-152.286 19.705-46.588 47.914-88.426 83.84-124.355 35.929-35.928 77.768-64.135 124.355-83.84 48.235-20.403 99.472-30.748 152.285-30.748s104.049 10.345 152.284 30.747c46.588 19.706 88.428 47.913 124.355 83.841 35.928 35.929 64.136 77.767 83.84 124.355 20.403 48.235 30.748 99.472 30.748 152.286 0 52.812-10.345 104.047-30.747 152.284-19.705 46.588-47.913 88.426-83.841 124.356-35.927 35.927-77.767 64.135-124.355 83.84-48.235 20.4-99.47 30.747-152.284 30.747" id="Fill-8"/></g></g></g></g></svg>