<svg width="425" height="426" viewBox="0 0 425 426" version="1.1" xmlns="http://www.w3.org/2000/svg" xmlns:xlink="http://www.w3.org/1999/xlink"><title>Group 10</title><defs><path id="path-1" d="M0 .459h424.04v424.04H0z"/></defs><g id="Page-1" stroke="none" stroke-width="1" fill="none" fill-rule="evenodd"><g id="guia-de-estilo" transform="translate(-120 -724)"><g id="Group-10" transform="translate(120 724)"><g id="Group-3" transform="translate(0 .041)"><mask id="mask-2" fill="#fff"><use xlink:href="#path-1"/></mask><path d="M212.02 4.885c-28.026 0-55.212 5.489-80.804 16.313-24.72 10.456-46.921 25.425-65.987 44.49-19.066 19.066-34.034 41.267-44.49 65.987-10.824 25.592-16.313 52.778-16.313 80.804 0 28.026 5.489 55.213 16.313 80.805 10.456 24.72 25.424 46.92 44.49 65.987 19.066 19.065 41.267 34.034 65.987 44.49 25.592 10.824 52.778 16.313 80.804 16.313 28.026 0 55.213-5.49 80.804-16.313 24.72-10.456 46.922-25.425 65.988-44.49 19.065-19.066 34.034-41.268 44.49-65.987 10.824-25.592 16.313-52.779 16.313-80.805 0-28.026-5.489-55.212-16.314-80.804-10.455-24.72-25.423-46.921-44.49-65.987-19.065-19.065-41.266-34.034-65.986-44.49-25.592-10.824-52.778-16.313-80.804-16.313m0 419.615c-28.622 0-56.388-5.606-82.53-16.663C104.245 397.16 81.57 381.872 62.1 362.4c-19.47-19.47-34.758-42.144-45.436-67.392C5.606 268.868 0 241.101 0 212.48c0-28.621 5.606-56.388 16.663-82.528 10.678-25.248 25.966-47.922 45.436-67.393 19.471-19.47 42.145-34.758 67.392-45.436C155.632 6.065 183.399.459 212.022.459c28.621 0 56.388 5.606 82.528 16.663 25.248 10.678 47.922 25.965 67.393 45.436 19.47 19.471 34.757 42.145 45.436 67.393 11.057 26.14 16.663 53.907 16.663 82.528 0 28.622-5.606 56.389-16.663 82.53-10.678 25.246-25.965 47.92-45.436 67.391-19.471 19.472-42.146 34.759-67.393 45.437-26.14 11.057-53.907 16.663-82.528 16.663" id="Fill-1" fill="#FF595A" mask="url(#mask-2)"/></g><path d="M212.02 26.936c-25.055 0-49.36 4.907-72.236 14.583-22.099 9.346-41.947 22.729-58.992 39.774-17.045 17.045-30.427 36.893-39.774 58.99-9.676 22.878-14.582 47.182-14.582 72.238 0 25.055 4.906 49.36 14.582 72.236 9.347 22.1 22.73 41.947 39.774 58.992 17.045 17.045 36.893 30.427 58.992 39.774 22.877 9.676 47.18 14.582 72.236 14.582 25.056 0 49.36-4.906 72.237-14.582 22.099-9.347 41.946-22.73 58.992-39.774 17.045-17.045 30.427-36.893 39.773-58.992 9.677-22.877 14.583-47.18 14.583-72.236 0-25.056-4.906-49.36-14.583-72.237-9.346-22.098-22.728-41.946-39.773-58.991-17.046-17.045-36.893-30.428-58.992-39.774-22.877-9.676-47.18-14.583-72.237-14.583m0 380.022c-26.247 0-51.71-5.142-75.685-15.282-23.154-9.793-43.947-23.812-61.803-41.667-17.855-17.856-31.874-38.65-41.667-61.803-10.14-23.974-15.282-49.438-15.282-75.685s5.142-51.711 15.282-75.685c9.793-23.154 23.812-43.948 41.667-61.803 17.856-17.856 38.65-31.875 61.803-41.668 23.974-10.14 49.438-15.281 75.685-15.281s51.711 5.14 75.686 15.281c23.153 9.793 43.947 23.812 61.802 41.668 17.855 17.855 31.875 38.649 41.668 61.803 10.14 23.974 15.281 49.438 15.281 75.685s-5.141 51.71-15.281 75.685c-9.793 23.154-23.813 43.947-41.668 61.803-17.855 17.855-38.649 31.874-61.802 41.667-23.975 10.14-49.439 15.282-75.686 15.282" id="Fill-4" fill="#425CC7"/><path d="M212.02 66.576c-19.705 0-38.817 3.858-56.806 11.466-17.378 7.35-32.987 17.875-46.392 31.28-13.406 13.405-23.93 29.014-31.28 46.392-7.609 17.989-11.467 37.101-11.467 56.807 0 19.705 3.858 38.817 11.467 56.806 7.35 17.378 17.874 32.987 31.28 46.392 13.405 13.406 29.014 23.93 46.392 31.28 17.989 7.608 37.101 11.466 56.806 11.466 19.706 0 38.818-3.858 56.807-11.466 17.378-7.35 32.987-17.874 46.392-31.28 13.405-13.405 23.93-29.014 31.28-46.392 7.608-17.989 11.466-37.101 11.466-56.806 0-19.706-3.858-38.818-11.466-56.807-7.35-17.378-17.875-32.987-31.28-46.392-13.405-13.405-29.014-23.93-46.392-31.28-17.99-7.608-37.101-11.466-56.807-11.466m0 304.505c-21.402 0-42.168-4.194-61.72-12.463-18.882-7.987-35.839-19.419-50.398-33.978-14.56-14.56-25.992-31.517-33.979-50.399-8.27-19.552-12.463-40.318-12.463-61.72 0-21.403 4.194-42.17 12.463-61.721 7.987-18.882 19.419-35.839 33.979-50.399 14.56-14.56 31.516-25.991 50.398-33.978 19.552-8.27 40.318-12.462 61.72-12.462 21.403 0 42.169 4.192 61.72 12.462 18.883 7.987 35.84 19.419 50.4 33.978 14.559 14.56 25.99 31.517 33.977 50.399 8.27 19.552 12.463 40.318 12.463 61.72 0 21.403-4.193 42.17-12.463 61.721-7.986 18.882-19.418 35.839-33.978 50.399-14.56 14.56-31.516 25.99-50.398 33.978-19.552 8.27-40.318 12.463-61.72 12.463" id="Fill-6" fill="#FCDC3E"/><path d="M212.02 45.91c-22.493 0-44.312 4.406-64.85 13.093-19.84 8.392-37.659 20.405-52.96 35.707-15.302 15.302-27.315 33.12-35.707 52.96-8.687 20.538-13.092 42.357-13.092 64.85 0 22.494 4.405 44.313 13.092 64.852 8.392 19.84 20.405 37.657 35.707 52.96 15.301 15.301 33.12 27.315 52.96 35.706 20.538 8.688 42.357 13.092 64.85 13.092 22.493 0 44.312-4.404 64.852-13.092 19.84-8.391 37.657-20.405 52.96-35.707 15.301-15.302 27.314-33.12 35.706-52.96 8.687-20.538 13.092-42.357 13.092-64.85 0-22.494-4.405-44.313-13.092-64.852-8.392-19.84-20.405-37.657-35.707-52.96-15.302-15.301-33.12-27.314-52.96-35.706-20.539-8.687-42.358-13.092-64.85-13.092m0 337.646c-23.09 0-45.489-4.523-66.576-13.442-20.367-8.615-38.658-20.947-54.365-36.653-15.707-15.708-28.039-33.999-36.654-54.366-8.919-21.088-13.441-43.487-13.441-66.575 0-23.09 4.522-45.489 13.441-66.576 8.615-20.367 20.947-38.658 36.654-54.365 15.707-15.707 33.998-28.039 54.365-36.654 21.087-8.92 43.487-13.442 66.575-13.442 23.09 0 45.488 4.523 66.576 13.442 20.367 8.615 38.658 20.947 54.365 36.654 15.707 15.707 28.039 33.998 36.653 54.365 8.92 21.087 13.442 43.487 13.442 66.576 0 23.088-4.522 45.487-13.442 66.575-8.614 20.367-20.946 38.658-36.653 54.366-15.707 15.706-33.998 28.038-54.365 36.653-21.088 8.919-43.487 13.442-66.576 13.442" id="Fill-8" fill="#FF595A"/></g></g></g></svg>