<?xml version="1.0" encoding="UTF-8"?>
<svg width="425px" height="426px" viewBox="0 0 425 426" version="1.1" xmlns="http://www.w3.org/2000/svg" xmlns:xlink="http://www.w3.org/1999/xlink">
    <title>Group 10</title>
    <defs>
        <polygon id="path-1" points="0 0.459 424.0405 0.459 424.0405 424.49985 0 424.49985"></polygon>
    </defs>
    <g id="Page-1" stroke="none" stroke-width="1" fill="none" fill-rule="evenodd">
        <g id="guia-de-estilo" transform="translate(-120.000000, -724.000000)">
            <g id="Group-10" transform="translate(120.000000, 724.000000)">
                <g id="Group-3" transform="translate(0.000000, 0.041000)">
                    <mask id="mask-2" fill="white">
                        <use xlink:href="#path-1"></use>
                    </mask>
                    <g id="Clip-2"></g>
                    <path d="M212.0205,4.88535 C183.9945,4.88535 156.808,10.37385 131.216,21.19835 C106.496,31.65385 84.295,46.62285 65.229,65.68785 C46.1635,84.75385 31.195,106.95535 20.7395,131.67485 C9.915,157.26735 4.4265,184.45335 4.4265,212.47935 C4.4265,240.50535 9.915,267.69185 20.7395,293.28385 C31.195,318.00335 46.1635,340.20485 65.229,359.27085 C84.295,378.33635 106.496,393.30535 131.216,403.76085 C156.808,414.58485 183.9945,420.07385 212.0205,420.07385 C240.0465,420.07385 267.233,414.58485 292.8245,403.76085 C317.5445,393.30535 339.746,378.33635 358.8115,359.27085 C377.8775,340.20485 392.846,318.00335 403.3015,293.28385 C414.126,267.69185 419.6145,240.50535 419.6145,212.47935 C419.6145,184.45335 414.126,157.26735 403.3015,131.67485 C392.846,106.95535 377.8775,84.75385 358.8115,65.68785 C339.746,46.62285 317.5445,31.65385 292.8245,21.19835 C267.233,10.37385 240.0465,4.88535 212.0205,4.88535 M212.0205,424.49985 C183.3985,424.49985 155.6325,418.89435 129.4915,407.83735 C104.244,397.15885 81.57,381.87185 62.0995,362.40035 C42.6285,342.92985 27.3415,320.25585 16.6625,295.00835 C5.606,268.86785 0,241.10135 0,212.47935 C0,183.85785 5.606,156.09135 16.6625,129.95085 C27.3415,104.70335 42.6285,82.02935 62.0995,62.55835 C81.57,43.08735 104.244,27.80035 129.4915,17.12185 C155.6325,6.06485 183.3985,0.45885 212.0205,0.45885 C240.642,0.45885 268.4085,6.06485 294.549,17.12185 C319.7965,27.80035 342.4705,43.08735 361.9415,62.55835 C381.4125,82.02935 396.6995,104.70335 407.378,129.95085 C418.435,156.09135 424.0405,183.85785 424.0405,212.47935 C424.0405,241.10135 418.435,268.86785 407.378,295.00835 C396.6995,320.25535 381.4125,342.92985 361.9415,362.40035 C342.4705,381.87185 319.7965,397.15885 294.549,407.83735 C268.4085,418.89435 240.642,424.49985 212.0205,424.49985" id="Fill-1" fill="#FF595A" mask="url(#mask-2)"></path>
                </g>
                <path d="M212.0203,26.9361 C186.9648,26.9361 162.6608,31.8426 139.7838,41.5186 C117.6853,50.8651 97.8373,64.2476 80.7923,81.2926 C63.7473,98.3381 50.3653,118.1856 41.0183,140.2836 C31.3423,163.1611 26.4363,187.4651 26.4363,212.5206 C26.4363,237.5761 31.3423,261.8801 41.0183,284.7571 C50.3653,306.8561 63.7473,326.7036 80.7923,343.7486 C97.8373,360.7936 117.6853,374.1756 139.7838,383.5226 C162.6608,393.1986 186.9648,398.1051 212.0203,398.1051 C237.0763,398.1051 261.3798,393.1986 284.2568,383.5226 C306.3558,374.1756 326.2033,360.7936 343.2488,343.7486 C360.2938,326.7036 373.6758,306.8561 383.0223,284.7571 C392.6988,261.8801 397.6048,237.5761 397.6048,212.5206 C397.6048,187.4651 392.6988,163.1611 383.0223,140.2836 C373.6758,118.1856 360.2938,98.3381 343.2488,81.2926 C326.2033,64.2476 306.3558,50.8651 284.2568,41.5186 C261.3798,31.8426 237.0763,26.9361 212.0203,26.9361 M212.0203,406.9576 C185.7733,406.9576 160.3093,401.8161 136.3353,391.6761 C113.1813,381.8831 92.3878,367.8636 74.5323,350.0086 C56.6773,332.1531 42.6583,311.3596 32.8648,288.2056 C22.7248,264.2316 17.5833,238.7676 17.5833,212.5206 C17.5833,186.2736 22.7248,160.8096 32.8648,136.8356 C42.6583,113.6816 56.6773,92.8876 74.5323,75.0326 C92.3878,57.1771 113.1813,43.1581 136.3353,33.3651 C160.3093,23.2246 185.7733,18.0836 212.0203,18.0836 C238.2673,18.0836 263.7313,23.2246 287.7058,33.3651 C310.8593,43.1581 331.6528,57.1771 349.5083,75.0326 C367.3633,92.8876 381.3828,113.6816 391.1758,136.8356 C401.3158,160.8096 406.4573,186.2736 406.4573,212.5206 C406.4573,238.7676 401.3158,264.2316 391.1758,288.2056 C381.3828,311.3596 367.3633,332.1531 349.5083,350.0086 C331.6528,367.8636 310.8593,381.8831 287.7058,391.6761 C263.7313,401.8161 238.2673,406.9576 212.0203,406.9576" id="Fill-4" fill="#425CC7"></path>
                <path d="M212.0203,66.57575 C192.3153,66.57575 173.2028,70.43375 155.2143,78.04225 C137.8358,85.39225 122.2273,95.91675 108.8218,109.32175 C95.4163,122.72725 84.8923,138.33575 77.5418,155.71425 C69.9333,173.70275 66.0753,192.81525 66.0753,212.52075 C66.0753,232.22575 69.9333,251.33825 77.5418,269.32675 C84.8923,286.70525 95.4163,302.31425 108.8218,315.71925 C122.2273,329.12475 137.8358,339.64875 155.2143,346.99925 C173.2028,354.60725 192.3153,358.46525 212.0203,358.46525 C231.7258,358.46525 250.8378,354.60725 268.8268,346.99925 C286.2053,339.64875 301.8138,329.12475 315.2188,315.71925 C328.6243,302.31425 339.1483,286.70525 346.4988,269.32675 C354.1073,251.33825 357.9653,232.22575 357.9653,212.52075 C357.9653,192.81525 354.1073,173.70275 346.4988,155.71425 C339.1483,138.33575 328.6243,122.72725 315.2188,109.32175 C301.8138,95.91675 286.2053,85.39225 268.8268,78.04225 C250.8378,70.43375 231.7258,66.57575 212.0203,66.57575 M212.0203,371.08075 C190.6178,371.08075 169.8518,366.88725 150.2998,358.61775 C131.4178,350.63075 114.4613,339.19925 99.9018,324.63975 C85.3418,310.07975 73.9098,293.12325 65.9233,274.24125 C57.6538,254.68925 53.4603,233.92325 53.4603,212.52075 C53.4603,191.11775 57.6538,170.35175 65.9233,150.79975 C73.9098,131.91825 85.3418,114.96125 99.9018,100.40125 C114.4613,85.84175 131.4178,74.40975 150.2998,66.42325 C169.8518,58.15325 190.6178,53.96075 212.0203,53.96075 C233.4233,53.96075 254.1888,58.15325 273.7408,66.42325 C292.6228,74.40975 309.5793,85.84175 324.1393,100.40125 C338.6988,114.96125 350.1308,131.91825 358.1173,150.79975 C366.3873,170.35175 370.5803,191.11775 370.5803,212.52075 C370.5803,233.92325 366.3873,254.68925 358.1173,274.24125 C350.1308,293.12325 338.6988,310.07975 324.1393,324.63975 C309.5793,339.19925 292.6228,350.63075 273.7408,358.61775 C254.1888,366.88725 233.4233,371.08075 212.0203,371.08075" id="Fill-6" fill="#FCDC3E"></path>
                <path d="M212.0203,45.9107 C189.5273,45.9107 167.7083,50.3157 147.1693,59.0032 C127.3298,67.3947 109.5113,79.4077 94.2098,94.7097 C78.9078,110.0117 66.8948,127.8297 58.5028,147.6692 C49.8158,168.2082 45.4108,190.0272 45.4108,212.5207 C45.4108,235.0137 49.8158,256.8327 58.5028,277.3717 C66.8948,297.2117 78.9078,315.0292 94.2098,330.3312 C109.5113,345.6332 127.3298,357.6467 147.1693,366.0382 C167.7083,374.7257 189.5273,379.1297 212.0203,379.1297 C234.5133,379.1297 256.3323,374.7257 276.8718,366.0382 C296.7113,357.6467 314.5293,345.6332 329.8313,330.3312 C345.1333,315.0292 357.1463,297.2117 365.5378,277.3717 C374.2253,256.8327 378.6298,235.0137 378.6298,212.5207 C378.6298,190.0272 374.2253,168.2082 365.5378,147.6692 C357.1463,127.8297 345.1333,110.0117 329.8313,94.7097 C314.5293,79.4077 296.7113,67.3947 276.8718,59.0032 C256.3323,50.3157 234.5133,45.9107 212.0203,45.9107 M212.0203,383.5567 C188.9318,383.5567 166.5323,379.0337 145.4448,370.1147 C125.0778,361.5002 106.7868,349.1682 91.0798,333.4617 C75.3733,317.7542 63.0413,299.4632 54.4263,279.0962 C45.5073,258.0082 40.9848,235.6092 40.9848,212.5207 C40.9848,189.4317 45.5073,167.0322 54.4263,145.9447 C63.0413,125.5777 75.3733,107.2867 91.0798,91.5797 C106.7868,75.8727 125.0778,63.5412 145.4448,54.9262 C166.5323,46.0067 188.9318,41.4842 212.0203,41.4842 C235.1093,41.4842 257.5083,46.0067 278.5958,54.9262 C298.9628,63.5412 317.2543,75.8727 332.9608,91.5797 C348.6678,107.2867 360.9998,125.5777 369.6143,145.9447 C378.5338,167.0322 383.0563,189.4317 383.0563,212.5207 C383.0563,235.6092 378.5338,258.0082 369.6143,279.0962 C360.9998,299.4632 348.6678,317.7542 332.9608,333.4617 C317.2543,349.1682 298.9628,361.5002 278.5958,370.1147 C257.5083,379.0337 235.1093,383.5567 212.0203,383.5567" id="Fill-8" fill="#FF595A"></path>
            </g>
        </g>
    </g>
</svg>