<?xml version="1.0" encoding="UTF-8"?>
<svg width="646px" height="646px" viewBox="0 0 646 646" version="1.1" xmlns="http://www.w3.org/2000/svg" xmlns:xlink="http://www.w3.org/1999/xlink">
    <!-- Generator: Sketch 63.1 (92452) - https://sketch.com -->
    <title>circles copy 2</title>
    <desc>Created with Sketch.</desc>
    <defs>
        <polygon id="path-1" points="0 0.127346816 644.821975 0.127346816 644.821975 644.429079 0 644.429079"></polygon>
    </defs>
    <g id="Page-1" stroke="none" stroke-width="1" fill="none" fill-rule="evenodd">
        <g id="4.-nosotros" transform="translate(-724.000000, -2868.000000)">
            <g id="circles-copy-2" transform="translate(723.000000, 2867.000000)">
                <g id="Group-10" transform="translate(1.524706, 1.523474)">
                    <g id="Group-3" transform="translate(0.000000, 0.146097)">
                        <mask id="mask-2" fill="white">
                            <use xlink:href="#path-1"></use>
                        </mask>
                        <g id="Clip-2"></g>
                        <path d="M640.373206,344.621715 L629.181083,371.616505 C626.250129,378.708864 624.731483,386.315883 624.731483,393.969387 L624.731483,423.198802 C624.731483,438.691753 618.570498,453.55715 607.607668,464.507804 L586.934806,485.163966 C581.508222,490.589487 577.191545,497.031048 574.260591,504.120086 L563.068468,531.114877 C557.136775,545.429089 545.741945,556.798112 531.436098,562.721692 L504.399545,573.908094 C497.321391,576.853283 490.874622,581.14655 485.444714,586.572071 L464.755237,607.244835 C453.795729,618.195489 438.938252,624.338215 423.429452,624.338215 L394.179729,624.338215 C386.500098,624.338215 378.903545,625.852314 371.808775,628.797502 L344.788837,639.983904 C330.463052,645.910805 314.372714,645.910805 300.046929,639.983904 L273.030314,628.797502 C265.932222,625.852314 258.322375,624.338215 250.65936,624.338215 L221.406314,624.338215 C205.900837,624.338215 191.026745,618.195489 180.063914,607.244835 L159.394375,586.572071 C153.961145,581.14655 147.517698,576.853283 140.419606,573.908094 L113.402991,562.721692 C99.0772062,556.798112 87.6989908,545.429089 81.7706215,531.114877 L70.5751754,504.120086 C67.6276062,497.031048 63.3308677,490.589487 57.90096,485.163966 L37.2114831,464.507804 C26.2519754,453.55715 20.0876677,438.691753 20.0876677,423.198802 L20.0876677,393.969387 C20.0876677,386.315883 18.58896,378.708864 15.6413908,371.616505 L4.44594462,344.621715 C-1.48242462,330.307503 -1.48242462,314.230163 4.44594462,299.915951 L15.6413908,272.921161 C18.58896,265.828802 20.0876677,258.238385 20.0876677,250.568279 L20.0876677,221.338864 C20.0876677,205.845913 26.2519754,190.997118 37.2114831,180.046464 L57.90096,159.3737 C63.3308677,153.948179 67.6276062,147.506618 70.5751754,140.434182 L81.7706215,113.422789 C87.6989908,99.1085775 99.0772062,87.7395538 113.402991,81.8159737 L140.419606,70.6295715 C147.517698,67.7009854 153.961145,63.391116 159.394375,57.9622744 L180.063914,37.3094334 C191.026745,26.3587791 205.900837,20.1994512 221.406314,20.1994512 L250.65936,20.1994512 C258.322375,20.1994512 265.932222,18.6853522 273.030314,15.7534457 L300.046929,4.57036394 C314.372714,-1.35653657 330.463052,-1.35653657 344.788837,4.57036394 L371.808775,15.7534457 C378.903545,18.6853522 386.500098,20.1994512 394.179729,20.1994512 L423.429452,20.1994512 C438.938252,20.1994512 453.795729,26.3587791 464.755237,37.3094334 L485.444714,57.9622744 C490.874622,63.391116 497.321391,67.7009854 504.399545,70.6295715 L531.436098,81.8159737 C545.741945,87.7395538 557.136775,99.1085775 563.068468,113.422789 L574.260591,140.434182 C577.191545,147.506618 581.508222,153.948179 586.934806,159.3737 L607.607668,180.046464 C618.570498,190.997118 624.731483,205.845913 624.731483,221.338864 L624.731483,250.568279 C624.731483,258.238385 626.250129,265.828802 629.181083,272.921161 L640.373206,299.915951 C646.304898,314.230163 646.304898,330.307503 640.373206,344.621715" id="Fill-1" fill="#455BA6" mask="url(#mask-2)"></path>
                    </g>
                    <path d="M575.326634,340.197292 L566.420788,361.67027 C564.091311,367.311617 562.885034,373.361372 562.885034,379.450971 L562.885034,402.697039 C562.885034,415.025656 557.983495,426.846253 549.263742,435.555642 L532.821157,451.988265 C528.501157,456.301454 525.068418,461.42482 522.738942,467.066167 L513.836418,488.539145 C509.117649,499.92477 500.055618,508.966199 488.67408,513.681156 L467.170449,522.576488 C461.537834,524.920685 456.410326,528.334048 452.093649,532.650558 L435.634449,549.093142 C426.918018,557.805851 415.097834,562.690149 402.762572,562.690149 L379.497711,562.690149 C373.386572,562.690149 367.348542,563.895451 361.702634,566.239648 L340.212295,575.134979 C328.817465,579.849937 316.016972,579.849937 304.622142,575.134979 L283.131803,566.239648 C277.489218,563.895451 271.431249,562.690149 265.336726,562.690149 L242.071865,562.690149 C229.73328,562.690149 217.903126,557.805851 209.183372,549.093142 L192.744111,532.650558 C188.424111,528.334048 183.296603,524.920685 177.650695,522.576488 L156.160357,513.681156 C144.765526,508.966199 135.713465,499.92477 131.001342,488.539145 L122.095495,467.066167 C119.749403,461.42482 116.329957,456.301454 112.01328,451.988265 L95.5574031,435.555642 C86.8376492,426.846253 81.9361108,415.025656 81.9361108,402.697039 L81.9361108,379.450971 C81.9361108,373.361372 80.7431262,367.311617 78.3970338,361.67027 L69.4945108,340.197292 C64.7757415,328.811666 64.7757415,316.021515 69.4945108,304.635889 L78.3970338,283.162911 C80.7431262,277.524885 81.9361108,271.488411 81.9361108,265.38553 L81.9361108,242.136142 C81.9361108,229.810845 86.8376492,218.000209 95.5574031,209.29082 L112.01328,192.848237 C116.329957,188.531726 119.749403,183.408361 122.095495,177.780296 L131.001342,156.294036 C135.713465,144.908411 144.765526,135.866982 156.160357,131.155345 L177.650695,122.256693 C183.296603,119.925778 188.424111,116.499133 192.744111,112.182623 L209.183372,95.7533209 C217.903126,87.0406112 229.73328,82.1430323 242.071865,82.1430323 L265.336726,82.1430323 C271.431249,82.1430323 277.489218,80.9377299 283.131803,78.6101348 L304.622142,69.711483 C316.016972,64.9998462 328.817465,64.9998462 340.212295,69.711483 L361.702634,78.6101348 C367.348542,80.9377299 373.386572,82.1430323 379.497711,82.1430323 L402.762572,82.1430323 C415.097834,82.1430323 426.918018,87.0406112 435.634449,95.7533209 L452.093649,112.182623 C456.410326,116.499133 461.537834,119.925778 467.170449,122.256693 L488.67408,131.155345 C500.055618,135.866982 509.117649,144.908411 513.836418,156.294036 L522.738942,177.780296 C525.068418,183.408361 528.501157,188.531726 532.821157,192.848237 L549.263742,209.29082 C557.983495,218.000209 562.885034,229.810845 562.885034,242.136142 L562.885034,265.38553 C562.885034,271.488411 564.091311,277.524885 566.420788,283.162911 L575.326634,304.635889 C580.04208,316.021515 580.04208,328.811666 575.326634,340.197292" id="Fill-4" fill="#EB5C5D"></path>
                    <path d="M507.406265,335.424228 L500.893034,351.129684 C499.188295,355.256932 498.30768,359.683015 498.30768,364.135661 L498.30768,381.139391 C498.30768,390.157577 494.72208,398.803879 488.345095,405.175712 L476.315557,417.192212 C473.155311,420.349905 470.646388,424.098628 468.941649,428.222556 L462.428418,443.931332 C458.979065,452.258877 452.349526,458.873098 444.025218,462.319666 L428.293772,468.827635 C424.17648,470.540957 420.424726,473.037893 417.267803,476.195586 L405.228295,488.222047 C398.851311,494.59388 390.207988,498.169943 381.185834,498.169943 L364.165034,498.169943 C359.698818,498.169943 355.279126,499.049847 351.151865,500.763169 L335.430388,507.271139 C327.096111,510.717706 317.735003,510.717706 309.400726,507.271139 L293.679249,500.763169 C289.548665,499.049847 285.122326,498.169943 280.662757,498.169943 L263.64528,498.169943 C254.623126,498.169943 245.969834,494.59388 239.592849,488.222047 L227.563311,476.195586 C224.403065,473.037893 220.654634,470.540957 216.524049,468.827635 L200.805895,462.319666 C192.471618,458.873098 185.852049,452.258877 182.402695,443.931332 L175.889465,428.222556 C174.174757,424.098628 171.67248,420.349905 168.515557,417.192212 L156.476049,405.175712 C150.099065,398.803879 146.513465,390.157577 146.513465,381.139391 L146.513465,364.135661 C146.513465,359.683015 145.642818,355.256932 143.928111,351.129684 L137.41488,335.424228 C133.962203,327.096684 133.962203,317.743138 137.41488,309.415594 L143.928111,293.706817 C145.642818,289.58289 146.513465,285.166768 146.513465,280.70084 L146.513465,263.69711 C146.513465,254.682245 150.099065,246.042584 156.476049,239.670751 L168.515557,227.644289 C171.67248,224.486596 174.174757,220.741193 175.889465,216.623907 L182.402695,200.908489 C185.852049,192.580945 192.471618,185.966723 200.805895,182.520156 L216.524049,176.012187 C220.654634,174.305505 224.403065,171.798609 227.563311,168.640916 L239.592849,156.624415 C245.969834,150.252582 254.623126,146.669879 263.64528,146.669879 L280.662757,146.669879 C285.122326,146.669879 289.548665,145.789975 293.679249,144.083293 L309.400726,137.575324 C317.735003,134.128757 327.096111,134.128757 335.430388,137.575324 L351.151865,144.083293 C355.279126,145.789975 359.698818,146.669879 364.165034,146.669879 L381.185834,146.669879 C390.207988,146.669879 398.851311,150.252582 405.228295,156.624415 L417.267803,168.640916 C420.424726,171.798609 424.17648,174.305505 428.293772,176.012187 L444.025218,182.520156 C452.349526,185.966723 458.979065,192.580945 462.428418,200.908489 L468.941649,216.623907 C470.646388,220.741193 473.155311,224.486596 476.315557,227.644289 L488.345095,239.670751 C494.72208,246.042584 498.30768,254.682245 498.30768,263.69711 L498.30768,280.70084 C498.30768,285.166768 499.188295,289.58289 500.893034,293.706817 L507.406265,309.415594 C510.858942,317.743138 510.858942,327.096684 507.406265,335.424228" id="Fill-6" fill="#FDDD41"></path>
                    <path d="M429.103274,329.921673 L425.348197,338.979704 C424.364566,341.360425 423.852812,343.910487 423.852812,346.480471 L423.852812,356.28891 C423.852812,361.488644 421.785858,366.475874 418.107212,370.148228 L411.171951,377.081207 C409.350905,378.900782 407.902043,381.062358 406.918412,383.443079 L403.163335,392.50111 C401.172812,397.302397 397.347951,401.117528 392.549428,403.106443 L383.477428,406.858487 C381.101428,407.847964 378.938105,409.289014 377.117058,411.108589 L370.175151,418.044889 C366.496505,421.720563 361.511889,423.779207 356.307951,423.779207 L346.491582,423.779207 C343.916197,423.779207 341.367397,424.290547 338.984751,425.276704 L329.919397,429.032067 C325.114228,431.017662 319.714228,431.017662 314.905735,429.032067 L305.840382,425.276704 C303.457735,424.290547 300.905612,423.779207 298.333551,423.779207 L288.520505,423.779207 C283.313243,423.779207 278.321982,421.720563 274.646658,418.044889 L267.711397,411.108589 C265.887028,409.289014 263.723705,407.847964 261.344382,406.858487 L252.279028,403.106443 C247.470535,401.117528 243.65232,397.302397 241.661797,392.50111 L237.90672,383.443079 C236.919766,381.062358 235.474228,378.900782 233.653182,377.081207 L226.711274,370.148228 C223.032628,366.475874 220.965674,361.488644 220.965674,356.28891 L220.965674,346.480471 C220.965674,343.910487 220.463889,341.360425 219.473612,338.979704 L215.718535,329.921673 C213.728012,325.117066 213.728012,319.724748 215.718535,314.92014 L219.473612,305.86211 C220.463889,303.481388 220.965674,300.937968 220.965674,298.361343 L220.965674,288.556224 C220.965674,283.35649 223.032628,278.372581 226.711274,274.700227 L233.653182,267.763927 C235.474228,265.941032 236.919766,263.779456 237.90672,261.405375 L241.661797,252.340704 C243.65232,247.539417 247.470535,243.724286 252.279028,241.735371 L261.344382,237.983327 C263.723705,237.000491 265.887028,235.5528 267.711397,233.733225 L274.646658,226.803566 C278.321982,223.127891 283.313243,221.062607 288.520505,221.062607 L298.333551,221.062607 C300.905612,221.062607 303.457735,220.554587 305.840382,219.571751 L314.905735,215.816387 C319.714228,213.827472 325.114228,213.827472 329.919397,215.816387 L338.984751,219.571751 C341.367397,220.554587 343.916197,221.062607 346.491582,221.062607 L356.307951,221.062607 C361.511889,221.062607 366.496505,223.127891 370.175151,226.803566 L377.117058,233.733225 C378.938105,235.5528 381.101428,237.000491 383.477428,237.983327 L392.549428,241.735371 C397.347951,243.724286 401.172812,247.539417 403.163335,252.340704 L406.918412,261.405375 C407.902043,263.779456 409.350905,265.941032 411.171951,267.763927 L418.107212,274.700227 C421.785858,278.372581 423.852812,283.35649 423.852812,288.556224 L423.852812,298.361343 C423.852812,300.937968 424.364566,303.481388 425.348197,305.86211 L429.103274,314.92014 C431.093797,319.724748 431.093797,325.117066 429.103274,329.921673" id="Fill-8" fill="#86CBCA"></path>
                </g>
            </g>
        </g>
    </g>
</svg>