<?xml version="1.0" encoding="UTF-8"?>
<svg width="120px" height="60px" viewBox="0 0 120 60" version="1.1" xmlns="http://www.w3.org/2000/svg" xmlns:xlink="http://www.w3.org/1999/xlink">
    <!-- Generator: Sketch 63.1 (92452) - https://sketch.com -->
    <title>IGP_yiju_blanco</title>
    <desc>Created with Sketch.</desc>
    <g id="IGP_yiju_blanco" stroke="none" stroke-width="1" fill="none" fill-rule="evenodd">
        <g id="YIJU_IGP-16" fill="#FFFFFF" fill-rule="nonzero">
            <path d="M73.0853242,14.5679181 C72.4067491,14.5679181 71.8566138,15.1180119 71.8566138,15.796587 L71.8566138,27.8989761 C71.8361775,38.8668942 79.3924915,45.0511945 87.6450512,45.0511945 C97.0648464,45.0511945 103.462116,37.4580205 103.462116,29.0784983 L103.462116,15.9726962 C103.462116,15.1832872 102.822174,14.5433447 102.032765,14.5433447 L92.1501706,14.5433447 C91.359727,14.5433447 90.712628,15.1822526 90.7453925,16.2880546 L90.7453925,29.4880546 C90.7585291,30.3170517 90.439514,31.1168594 89.8594378,31.7092448 C89.2793617,32.3016303 88.4864281,32.6373671 87.6573379,32.6416382 C86.8395358,32.6429571 86.0558139,32.3141647 85.4837405,31.7297555 C84.9116671,31.1453463 84.599667,30.3547893 84.61843,29.5372014 L84.61843,15.8129693 C84.61843,15.1343942 84.0683362,14.5843003 83.3897611,14.5843003 L73.0853242,14.5679181 Z" id="Path"></path>
            <path d="M51.3624573,59.6354949 C60.7822526,59.6354949 67.1795222,52.0464164 67.1795222,43.6627986 L67.1795222,16.0587031 C67.1795222,15.2686288 66.5402417,14.6275133 65.7501706,14.625256 L55.8552901,14.625256 C55.0648464,14.625256 54.4177474,15.2682594 54.4505119,16.3740614 L54.4505119,44.1010239 C54.4636486,44.930021 54.1446334,45.7298287 53.5645573,46.3222141 C52.9844812,46.9145995 52.1915475,47.2503364 51.3624573,47.2546075 L48.1761092,47.2546075 C47.207344,47.2546049 46.4213708,48.0387459 46.4191126,49.0075085 L45.841633,57.8498294 C45.8393255,58.811584 46.6123696,59.5955932 47.5740614,59.6068259 L51.3624573,59.6354949 Z" id="Path"></path>
            <path d="M30.1638225,14.5187713 L20.268942,14.5187713 C19.4784983,14.5187713 18.8313993,15.1576792 18.8641638,16.2634812 L18.8641638,28.3453925 C18.872894,29.1719511 18.5520559,29.9679492 17.972575,30.5574212 C17.3930941,31.1468932 16.6026963,31.4812902 15.7761092,31.4866894 C14.9583071,31.4880083 14.1745852,31.1592159 13.6025118,30.5748067 C13.0304385,29.9903975 12.7184383,29.1998405 12.7372014,28.3822526 L12.7372014,15.8129693 C12.7372014,15.1343942 12.1871075,14.5843003 11.5085324,14.5843003 L1.22866894,14.5843003 C0.550093823,14.5843003 0,15.1343942 0,15.8129693 L0,26.1624573 C0,37.1303754 5.11535836,43.2901024 15.796587,43.2901024 C16.8327979,43.2906156 17.8667411,43.1932549 18.8846416,42.9993174 L18.8846416,44.6825939 C18.8966701,45.5112674 18.5772934,46.3104358 17.9974554,46.9025781 C17.4176174,47.4947203 16.6253304,47.8308052 15.796587,47.8361775 L8.45324232,47.8361775 C7.98763486,47.8350896 7.54072475,48.0192894 7.21110571,48.34814 C6.88148667,48.6769907 6.69624446,49.1234698 6.69624573,49.5890785 L6.69624573,57.8498294 C6.69615175,58.8106757 7.46791655,59.5933875 8.42866894,59.6068259 L15.7761092,59.6354949 C27.3460751,59.6354949 31.5931741,52.0464164 31.5931741,43.6627986 L31.5931741,15.9481229 C31.5931741,15.1587138 30.9532316,14.5187713 30.1638225,14.5187713 Z" id="Path"></path>
            <path d="M115.81843,41.8361775 L110.756314,41.8361775 C110.268835,41.8357295 109.862971,41.4619079 109.822526,40.9761092 L106.791809,15.3133106 C106.76901,15.0535353 106.855395,14.795996 107.03023,14.6025124 C107.205064,14.4090289 107.452561,14.2970718 107.713311,14.2935154 L118.931058,14.2935154 C119.19426,14.2935154 119.445356,14.404112 119.623525,14.5978417 C119.801694,14.7915715 119.890685,15.0510079 119.868942,15.3133106 L116.744027,40.9761092 C116.701567,41.4625506 116.294434,41.8361775 115.806143,41.8361775" id="Path"></path>
            <path d="M119.705141,51.8170648 C119.71175,54.3964329 118.16286,56.7254321 115.781575,57.7167285 C113.400291,58.7080249 110.656276,58.1661042 108.830621,56.3439714 C107.004966,54.5218386 106.457747,51.778875 107.444443,49.3956808 C108.431139,47.0124866 110.757143,45.4591017 113.336519,45.4607495 C116.852864,45.46301 119.70286,48.3130067 119.705141,51.8293515" id="Path"></path>
            <path d="M46.116041,42.7003413 L39.8948805,42.7003413 C39.4067198,42.6977643 39.0014122,42.3226771 38.9610922,41.8361775 L35.9262799,15.6450512 C35.9045921,15.3834565 35.9930404,15.1246767 36.1703072,14.9310827 C36.347574,14.7374888 36.5975797,14.626641 36.8600683,14.6252491 L49.2368601,14.6252491 C49.5004672,14.6242485 49.7523284,14.7342236 49.9307728,14.9282528 C50.1092173,15.1222819 50.1977686,15.3824496 50.174744,15.6450512 L47.0498294,41.8566553 C47.0074994,42.3437987 46.6009186,42.7184212 46.1119454,42.7208191" id="Path"></path>
            <path d="M52.202053,9.82935154 C52.2029335,10.1095994 52.0907078,10.3783503 51.890785,10.574744 C51.6952011,10.7758604 51.4259198,10.8883075 51.1453925,10.8860068 C47.9017065,10.8860068 46.443686,14.268942 43.0607509,10.8860068 C40.152901,7.97406143 37.7119454,10.8860068 34.9638225,10.8860068 C34.536802,10.8862286 34.1516217,10.6294065 33.9876376,10.2351277 C33.8236534,9.84084887 33.9131028,9.38662402 34.2143345,9.08395904 C34.3941522,8.9019518 34.6347373,8.79259494 34.8901024,8.77679181 C34.8901024,4.27167235 38.5515358,0.311262799 43.0566553,0.311262799 C47.5617747,0.311262799 51.2150171,4.27576792 51.2477816,8.77679181 C51.7894736,8.82952933 52.2024994,9.28509861 52.202053,9.82935154" id="Path"></path>
            <path d="M55.0607509,8.33447099 L56.2607509,7.64232082 C56.496315,8.33370157 57.1708539,8.77721095 57.8989761,8.71945392 C58.7426621,8.71945392 59.0375427,8.36723549 59.0375427,7.97406143 C59.0375427,7.44982935 58.5583618,7.24914676 57.5017065,6.94607509 C56.4450512,6.64300341 55.3556314,6.18020478 55.3556314,4.83686007 C55.3556314,3.49351536 56.4737201,2.73993174 57.694198,2.73993174 C58.7837596,2.70804603 59.7861669,3.33273463 60.2375427,4.32491468 L59.0580205,5.00068259 C58.8453358,4.43710161 58.296138,4.07261897 57.694198,4.09556314 C57.1044369,4.09556314 56.7604096,4.39863481 56.7604096,4.8 C56.7604096,5.20136519 57.0348123,5.46757679 58.1119454,5.79112628 C59.1890785,6.11467577 60.4423208,6.51604096 60.4423208,7.95767918 C60.4423208,9.27645051 59.3733788,10.0832765 57.8580205,10.0832765 C56.3426621,10.0832765 55.4457338,9.38703072 55.0607509,8.33856655" id="Path"></path>
            <path d="M66.0491468,6.84368601 L66.0491468,9.93993174 L64.734471,9.93993174 L64.734471,7.00341297 C64.763154,6.72589054 64.6673368,6.44993105 64.4728401,6.24989991 C64.2783434,6.04986878 64.0051803,5.94634843 63.7269625,5.96723549 C63.0880546,5.96723549 62.6088737,6.33993174 62.6088737,7.19590444 L62.6088737,9.91945392 L61.2982935,9.91945392 L61.2982935,4.91467577 L62.6088737,4.91467577 L62.6088737,5.47986348 C62.9603773,5.0014663 63.5319088,4.73578141 64.1242321,4.77542662 C65.2054608,4.77542662 66.0491468,5.52081911 66.0491468,6.86006826" id="Path"></path>
            <path d="M72.3481229,4.91467577 L72.3481229,9.93993174 L71.0334471,9.93993174 L71.0334471,9.34607509 C70.6247848,9.83528927 70.0116115,10.1062967 69.374744,10.0791809 C68.6956741,10.0525622 68.0550623,9.75699622 67.5941089,9.25763009 C67.1331556,8.75826397 66.889701,8.09609131 66.9174061,7.41706485 C66.889714,6.73844144 67.1332938,6.07670733 67.5943565,5.57799119 C68.0554192,5.07927505 68.6960369,4.78460222 69.374744,4.75904437 C70.0123367,4.72805963 70.6271576,4.99979528 71.0334471,5.49215017 L71.0334471,4.91467577 L72.3481229,4.91467577 Z M71.0334471,7.4334471 C71.0334471,6.65534763 70.4026728,6.02457338 69.6245734,6.02457338 C68.8464739,6.02457338 68.2156997,6.65534763 68.2156997,7.4334471 C68.2156997,8.21154657 68.8464739,8.84232082 69.6245734,8.84232082 C70.0059929,8.85772678 70.3763217,8.7120928 70.6450749,8.44100263 C70.913828,8.16991245 71.0562503,7.79833664 71.0375427,7.41706485" id="Shape"></path>
            <path d="M73.2737201,7.41706485 C73.2611249,6.70331607 73.5410961,6.01549001 74.0485716,5.51342966 C74.556047,5.01136931 75.246837,4.738793 75.9604096,4.75904437 C76.8954319,4.74716171 77.7630024,5.24448509 78.225256,6.05733788 L77.0948805,6.71262799 C76.8717891,6.2821234 76.4203799,6.0189343 75.9358362,6.03686007 C75.175832,6.03686007 74.559727,6.65296515 74.559727,7.41296928 C74.559727,8.17297342 75.175832,8.7890785 75.9358362,8.7890785 C76.4217619,8.81316574 76.8779732,8.55475231 77.1071672,8.12559727 L78.2457338,8.76860068 C77.6325386,9.80603045 76.4020233,10.306222 75.2389234,9.99083742 C74.0758234,9.67545288 73.2665501,8.62215517 73.2614334,7.41706485" id="Path"></path>
            <polygon id="Path" points="82.116041 9.93993174 80.2648464 7.65051195 80.2648464 9.93993174 78.9501706 9.93993174 78.9501706 2.88327645 80.2648464 2.88327645 80.2648464 7.11808874 82.0136519 4.89829352 83.578157 4.89829352 81.534471 7.3883959 83.6395904 9.93993174"></polygon>
            <polygon id="Path" points="92.3426621 2.88327645 92.3426621 9.93993174 90.9460751 9.93993174 90.9460751 7.01569966 88.3003413 7.01569966 88.3003413 9.93993174 86.8955631 9.93993174 86.8955631 2.88327645 88.3003413 2.88327645 88.3003413 5.68464164 90.9460751 5.68464164 90.9460751 2.88327645"></polygon>
            <path d="M96.1474403,8.8996587 C96.5845943,8.91763989 97.0052929,8.73150345 97.2860068,8.39590444 L98.3426621,9.01023891 C97.8342721,9.72146804 97.0003158,10.1268849 96.1269625,10.087372 C94.4150171,10.087372 93.337884,8.92832765 93.337884,7.42525597 C93.3168694,6.70903925 93.5941544,6.01624521 94.1035245,5.51231053 C94.6128945,5.00837584 95.3086233,4.7385388 96.0245734,4.76723549 C96.7233264,4.76219443 97.3936689,5.04349038 97.8795836,5.54565383 C98.3654983,6.04781729 98.6246009,6.7270465 98.596587,7.42525597 C98.5974295,7.60525701 98.5809716,7.78492245 98.5474403,7.96177474 L94.7098976,7.96177474 C94.894198,8.62525597 95.4552901,8.90784983 96.1474403,8.90784983 M97.2860068,6.96245734 C97.1815485,6.35382949 96.641579,5.91729574 96.0245734,5.94266212 C95.3860842,5.89742979 94.8137727,6.33456344 94.6894198,6.96245734 L97.2860068,6.96245734 Z" id="Shape"></path>
            <rect id="Rectangle" x="99.5139932" y="2.58020478" width="1.3105802" height="7.35972696"></rect>
            <path d="M107.205461,4.91467577 L107.205461,9.93993174 L105.894881,9.93993174 L105.894881,9.34607509 C105.486218,9.83528927 104.873045,10.1062967 104.236177,10.0791809 C103.557108,10.0525622 102.916496,9.75699622 102.455542,9.25763009 C101.994589,8.75826397 101.751134,8.09609131 101.77884,7.41706485 C101.723468,6.00451425 102.82363,4.81450491 104.236177,4.75904437 C104.873045,4.73192854 105.486218,5.00293599 105.894881,5.49215017 L105.894881,4.91467577 L107.205461,4.91467577 Z M105.894881,7.4334471 C105.885857,6.65861273 105.252801,6.03650704 104.477927,6.0409795 C103.703053,6.0455004 103.077259,6.67491133 103.077229,7.44979825 C103.077198,8.22468516 103.702942,8.85414537 104.477816,8.85870307 C104.859575,8.87402036 105.230254,8.72850102 105.499636,8.457562 C105.769017,8.18662298 105.912398,7.81511148 105.894881,7.4334471" id="Shape"></path>
            <path d="M113.56587,2.8668942 L113.56587,9.93993174 L112.25529,9.93993174 L112.25529,9.34607509 C111.856218,9.83621006 111.248452,10.1081857 110.617065,10.0791809 C109.933664,10.0589556 109.286755,9.76617471 108.820527,9.26609607 C108.3543,8.76601742 108.107506,8.10020616 108.135154,7.41706485 C108.108628,6.73461745 108.355923,6.06986822 108.822031,5.57068704 C109.288138,5.07150587 109.934402,4.77929111 110.617065,4.75904437 C111.248452,4.73003959 111.856218,5.00201519 112.25529,5.49215017 L112.25529,2.8668942 L113.56587,2.8668942 Z M112.25529,7.40068259 C112.248496,6.62089393 111.61125,5.99403928 110.831455,6.00006562 C110.05166,6.00609197 109.424179,6.64272057 109.429437,7.4225211 C109.434696,8.20232163 110.070707,8.83042966 110.850512,8.82593857 C111.230536,8.83898985 111.598663,8.69231721 111.865586,8.42150283 C112.132509,8.15068845 112.273839,7.78047786 112.25529,7.40068259" id="Shape"></path>
            <path d="M114.503754,7.41706485 C114.492128,6.32583765 115.140739,5.33565286 116.145745,4.91036025 C117.150752,4.48506764 118.313103,4.70890073 119.088298,5.47700544 C119.863493,6.24511014 120.097996,7.40535551 119.681956,8.4142273 C119.265915,9.42309908 118.281732,10.08078 117.190444,10.0791809 C116.478499,10.0913466 115.791793,9.81558606 115.285991,9.31441032 C114.780189,8.81323458 114.498131,8.12909093 114.503754,7.41706485 M118.570648,7.41706485 C118.563877,6.656435 117.942972,6.04466667 117.182325,6.04914624 C116.421679,6.05367525 115.808062,6.67275399 115.810293,7.43341069 C115.812537,8.19406739 116.429784,8.80952617 117.190444,8.80955631 C117.561755,8.82000284 117.920817,8.67623423 118.182311,8.41241255 C118.443805,8.14859088 118.584385,7.78826856 118.570648,7.41706485" id="Shape"></path>
        </g>
    </g>
</svg>