<?xml version="1.0" encoding="UTF-8"?>
<svg width="620px" height="620px" viewBox="0 0 620 620" version="1.1" xmlns="http://www.w3.org/2000/svg" xmlns:xlink="http://www.w3.org/1999/xlink">
    <!-- Generator: Sketch 63.1 (92452) - https://sketch.com -->
    <title>Stroke 1</title>
    <desc>Created with Sketch.</desc>
    <g id="Page-1" stroke="none" stroke-width="1" fill="none" fill-rule="evenodd">
        <g id="1.-home" transform="translate(-410.000000, -854.000000)" stroke="#455BA6" stroke-width="4">
            <g id="propuesta-de-valor" transform="translate(412.000000, 856.000000)">
                <g id="Group-5">
                    <path d="M611.75356,329.362816 L601.060229,355.172456 C598.2562,361.952793 596.808244,369.22423 596.808244,376.546361 L596.808244,404.488322 C596.808244,419.300508 590.924536,433.510701 580.449825,443.982204 L560.704392,463.730729 C555.514562,468.91737 551.392481,475.076705 548.59162,481.853874 L537.89829,507.666682 C532.233201,521.350924 521.352935,532.218474 507.681314,537.883541 L481.855733,548.576831 C475.091211,551.393522 468.935021,555.499745 463.745191,560.686387 L443.983916,580.450754 C433.512373,590.919088 419.321136,596.793268 404.505724,596.793268 L376.563655,596.793268 C369.222486,596.793268 361.966863,598.241219 355.186499,601.05791 L329.379928,611.7512 C315.695634,617.416267 300.322585,617.416267 286.63829,611.7512 L260.825382,601.05791 C254.051355,598.241219 246.776722,596.793268 239.454563,596.793268 L211.515663,596.793268 C196.693914,596.793268 182.490003,590.919088 172.01846,580.450754 L152.269859,560.686387 C147.083197,555.499745 140.920671,551.393522 134.146644,548.576831 L108.333736,537.883541 C94.6494411,532.218474 83.7786805,521.350924 78.1135916,507.666682 L67.420261,481.853874 C64.6067269,475.076705 60.500488,468.91737 55.3138266,463.730729 L35.5525518,443.982204 C25.0810088,433.510701 19.1941323,419.300508 19.1941323,404.488322 L19.1941323,376.546361 C19.1941323,369.22423 17.7556813,361.952793 14.9421472,355.172456 L4.24881667,329.362816 C-1.41627222,315.681742 -1.41627222,300.305584 4.24881667,286.621342 L14.9421472,260.811702 C17.7556813,254.031365 19.1941323,246.77577 19.1941323,239.440966 L19.1941323,211.495836 C19.1941323,196.68365 25.0810088,182.489299 35.5525518,172.017796 L55.3138266,152.253429 C60.500488,147.066788 64.6067269,140.907453 67.420261,134.146126 L78.1135916,108.317476 C83.7786805,94.6332341 94.6494411,83.7656837 108.333736,78.1006167 L134.146644,67.4073274 C140.920671,64.6064777 147.083197,60.4844127 152.269859,55.2977713 L172.01846,35.5492462 C182.490003,25.0777437 196.693914,19.1908899 211.515663,19.1908899 L239.454563,19.1908899 C246.776722,19.1908899 254.051355,17.7429393 260.825382,14.9420896 L286.63829,4.24880028 C300.322585,-1.41626676 315.695634,-1.41626676 329.379928,4.24880028 L355.186499,14.9420896 C361.966863,17.7429393 369.222486,19.1908899 376.563655,19.1908899 L404.505724,19.1908899 C419.321136,19.1908899 433.512373,25.0777437 443.983916,35.5492462 L463.745191,55.2977713 C468.935021,60.4844127 475.091211,64.6064777 481.855733,67.4073274 L507.681314,78.1006167 C521.352935,83.7656837 532.233201,94.6332341 537.89829,108.317476 L548.59162,134.146126 C551.392481,140.907453 555.514562,147.066788 560.704392,152.253429 L580.449825,172.017796 C590.924536,182.489299 596.808244,196.68365 596.808244,211.495836 L596.808244,239.440966 C596.808244,246.77577 598.2562,254.031365 601.060229,260.811702 L611.75356,286.621342 C617.41548,300.305584 617.41548,315.681742 611.75356,329.362816 Z" id="Stroke-1"></path>
                </g>
            </g>
        </g>
    </g>
</svg>