<?xml version="1.0" encoding="UTF-8"?>
<svg width="570px" height="570px" viewBox="0 0 570 570" version="1.1" xmlns="http://www.w3.org/2000/svg" xmlns:xlink="http://www.w3.org/1999/xlink">
    <!-- Generator: Sketch 63.1 (92452) - https://sketch.com -->
    <title>Stroke 3</title>
    <desc>Created with Sketch.</desc>
    <g id="Page-1" stroke="none" stroke-width="1" fill="none" fill-rule="evenodd">
        <g id="1.-home" transform="translate(-435.000000, -879.000000)" stroke="#EB5C5D" stroke-width="4">
            <g id="propuesta-de-valor" transform="translate(412.000000, 856.000000)">
                <g id="Group-5">
                    <path d="M587.098627,327.626212 L577.269288,351.341733 C574.693979,357.57515 573.366086,364.254857 573.366086,370.98212 L573.366086,396.651071 C573.366086,410.27021 567.9594,423.322343 558.338574,432.94317 L540.194353,451.087391 C535.427837,455.857565 531.641694,461.516659 529.066386,467.742761 L519.237047,491.454623 C514.031558,504.03486 504.033946,514.01784 491.471999,519.219671 L467.741846,529.04901 C461.530377,531.638951 455.871283,535.410461 451.104767,540.176977 L432.942256,558.332172 C423.321429,567.952999 410.28027,573.352368 396.668447,573.352368 L370.999496,573.352368 C364.253943,573.352368 357.588868,574.680261 351.362767,577.266544 L327.643588,587.095883 C315.074326,592.301372 300.94305,592.301372 288.373788,587.095883 L264.654609,577.266544 C258.42485,574.680261 251.745143,573.352368 245.01788,573.352368 L219.348929,573.352368 C205.733448,573.352368 192.677657,567.952999 183.05683,558.332172 L164.912609,540.176977 C160.142435,535.410461 154.483341,531.638951 148.257239,529.04901 L124.545377,519.219671 C111.968798,514.01784 101.98216,504.03486 96.7803293,491.454623 L86.9509904,467.742761 C84.3610492,461.516659 80.5895388,455.857565 75.8230228,451.087391 L57.6641698,432.94317 C48.0470012,423.322343 42.6329999,410.27021 42.6329999,396.651071 L42.6329999,370.98212 C42.6329999,364.254857 41.3233969,357.57515 38.7334557,351.341733 L28.9041168,327.626212 C23.6986277,315.053291 23.6986277,300.932991 28.9041168,288.356412 L38.7334557,264.637233 C41.3233969,258.41479 42.6329999,251.742399 42.6329999,245.00782 L42.6329999,219.331553 C42.6329999,205.716072 48.0470012,192.674913 57.6641698,183.054086 L75.8230228,164.898891 C80.5895388,160.128717 84.3610492,154.473281 86.9509904,148.254495 L96.7803293,124.524342 C101.98216,111.951422 111.968798,101.964784 124.545377,96.7629532 L148.257239,86.9372725 C154.483341,84.3619637 160.142435,80.5721628 164.912609,75.8093049 L183.05683,57.6650843 C192.677657,48.0405995 205.733448,42.6339144 219.348929,42.6339144 L245.01788,42.6339144 C251.745143,42.6339144 258.42485,41.3023627 264.654609,38.727054 L288.373788,28.9013732 C300.94305,23.6995423 315.074326,23.6995423 327.643588,28.9013732 L351.362767,38.727054 C357.588868,41.3023627 364.253943,42.6339144 370.999496,42.6339144 L396.668447,42.6339144 C410.28027,42.6339144 423.321429,48.0405995 432.942256,57.6650843 L451.104767,75.8093049 C455.871283,80.5721628 461.530377,84.3619637 467.741846,86.9372725 L491.471999,96.7629532 C504.033946,101.964784 514.031558,111.951422 519.237047,124.524342 L529.066386,148.254495 C531.641694,154.473281 535.427837,160.128717 540.194353,164.898891 L558.338574,183.054086 C567.9594,192.674913 573.366086,205.716072 573.366086,219.331553 L573.366086,245.00782 C573.366086,251.742399 574.693979,258.41479 577.269288,264.637233 L587.098627,288.356412 C592.300458,300.932991 592.300458,315.053291 587.098627,327.626212 Z" id="Stroke-3"></path>
                </g>
            </g>
        </g>
    </g>
</svg>