<?xml version="1.0" encoding="UTF-8"?>
<svg width="32px" height="33px" viewBox="0 0 32 33" version="1.1" xmlns="http://www.w3.org/2000/svg" xmlns:xlink="http://www.w3.org/1999/xlink">
    <!-- Generator: Sketch 63.1 (92452) - https://sketch.com -->
    <title>instagram</title>
    <desc>Created with Sketch.</desc>
    <defs>
        <polygon id="path-1" points="0 1.1537037 31.275392 1.1537037 31.275392 33.7034444 0 33.7034444"></polygon>
    </defs>
    <g id="Page-1" stroke="none" stroke-width="1" fill="none" fill-rule="evenodd">
        <g id="1.-home" transform="translate(-222.000000, -1615.000000)">
            <g id="instagram" transform="translate(222.000000, 1609.000000)">
                <g transform="translate(0.000000, 5.000000)" id="Group-8">
                    <g>
                        <g id="Group-3" transform="translate(0.000000, 0.142722)">
                            <mask id="mask-2" fill="white">
                                <use xlink:href="#path-1"></use>
                            </mask>
                            <g id="Clip-2"></g>
                            <path d="M22.093952,33.7034444 L9.181312,33.7034444 C4.118912,33.7034444 -0.000128,29.5332593 -0.000128,24.4064074 L-0.000128,10.4517778 C-0.000128,5.32362963 4.118912,1.15344444 9.181312,1.15344444 L22.093952,1.15344444 C27.156352,1.15344444 31.275392,5.32362963 31.275392,10.4517778 L31.275392,24.4064074 C31.275392,29.5332593 27.156352,33.7034444 22.093952,33.7034444 L22.093952,33.7034444 Z M9.181312,3.53733333 C5.416832,3.53733333 2.355072,6.63937037 2.355072,10.4517778 L2.355072,24.4064074 C2.355072,28.2188148 5.416832,31.3195556 9.181312,31.3195556 L22.093952,31.3195556 C25.858432,31.3195556 28.920192,28.2188148 28.920192,24.4064074 L28.920192,10.4517778 C28.920192,6.63937037 25.858432,3.53733333 22.093952,3.53733333 L9.181312,3.53733333 Z" id="Fill-1" fill="#425CC7" mask="url(#mask-2)"></path>
                        </g>
                        <path d="M15.637632,26.174037 C10.929792,26.174037 7.098752,22.2942222 7.098752,17.5264444 C7.098752,15.1762593 8.052352,12.8882963 9.716352,11.2510741 C11.338112,9.65662963 13.456512,8.81274074 15.679872,8.87885185 C18.337152,8.95792593 20.543872,9.86533333 22.059392,11.5038519 C23.496832,13.0568148 24.227712,15.1503333 24.175232,17.5575556 C24.126592,19.8636667 23.228032,22.022 21.647232,23.6358889 C20.045952,25.2731111 17.910912,26.174037 15.637632,26.174037 M15.440512,11.7903333 C14.058112,11.7903333 12.742272,12.3373704 11.720832,13.342 C10.612352,14.4334815 9.976192,15.9579259 9.976192,17.5264444 C9.976192,20.6881111 12.515712,23.259963 15.637632,23.259963 C18.741632,23.259963 21.229952,20.727 21.299072,17.494037 C21.334912,15.8632963 20.871552,14.4814444 19.960192,13.4962593 C18.979712,12.4371852 17.470592,11.8473704 15.596672,11.7916296 C15.544192,11.7903333 15.492992,11.7903333 15.440512,11.7903333" id="Fill-4" fill="#425CC7"></path>
                        <path d="M26.374528,8.63475926 C26.374528,9.74827778 25.483648,10.6517963 24.382848,10.6517963 C23.282048,10.6517963 22.391168,9.74827778 22.391168,8.63475926 C22.391168,7.52124074 23.282048,6.61772222 24.382848,6.61772222 C25.483648,6.61772222 26.374528,7.52124074 26.374528,8.63475926" id="Fill-6" fill="#425CC7"></path>
                    </g>
                </g>
            </g>
        </g>
    </g>
</svg>