<?xml version="1.0" encoding="UTF-8"?>
<svg width="55px" height="56px" viewBox="0 0 55 56" version="1.1" xmlns="http://www.w3.org/2000/svg" xmlns:xlink="http://www.w3.org/1999/xlink">
    <!-- Generator: Sketch 63.1 (92452) - https://sketch.com -->
    <title>icon_whatsapp_white</title>
    <desc>Created with Sketch.</desc>
    <g id="Page-1" stroke="none" stroke-width="1" fill="none" fill-rule="evenodd">
        <g id="1.-home" transform="translate(-1015.000000, -579.000000)" fill="#FFFFFF">
            <g id="banner" transform="translate(382.000000, 107.000000)">
                <g id="whataspp" transform="translate(554.000000, 347.000000)">
                    <g id="icon_whatsapp_white" transform="translate(72.000000, 119.000000)">
                        <g id="WhatsApp-Vector-Icons-02" transform="translate(7.437500, 6.729167)">
                            <path d="M27.9189583,0.053125 C13.19625,0.053125 1.264375,11.8929167 1.264375,26.5022917 C1.25762732,31.3182677 2.57998044,36.0427081 5.08583333,40.1554167 L0.27625,54.3504167 L15.034375,49.6647917 C18.9827533,51.8276414 23.4134654,52.9581613 27.9154167,52.9514583 C42.6416667,52.9514583 54.5735417,41.1116667 54.5735417,26.5022917 C54.5735417,11.8929167 42.6416667,0.0566666667 27.9189583,0.053125 Z M27.9189583,48.7404518 C23.5359815,48.7481813 19.2470158,47.4699882 15.5833333,45.0641667 L6.97708333,47.8125 L9.775,39.556875 C7.00687428,35.7757018 5.51794885,31.2096638 5.52497507,26.5235417 C5.52497507,14.25875 15.57625,4.28541667 27.933125,4.28541667 C40.29,4.28541667 50.3483333,14.25875 50.3447926,26.5164583 C50.34125,38.7741667 40.2722917,48.7404518 27.9154167,48.7404518 L27.9189583,48.7404518 Z M40.1270833,31.8395833 C39.4789583,31.51375 36.263125,29.9483333 35.6645833,29.7358333 C35.0660417,29.5233333 34.626875,29.4064583 34.19125,30.058125 C33.755625,30.7097917 32.5089583,32.1654167 32.1229167,32.6010417 C31.736875,33.0366667 31.3614583,33.0897917 30.70625,32.7710417 C28.7815936,32.0093725 27.0033762,30.9201545 25.4504167,29.5516667 C24.0220375,28.2442661 22.7972383,26.7305766 21.8166667,25.0608333 C21.430625,24.4127083 21.7777083,24.0620833 22.1,23.7397917 C22.4222917,23.4175 22.7552083,22.981875 23.0810417,22.6029167 C23.3495192,22.2821852 23.5702057,21.9243153 23.73625,21.5404167 C23.9089719,21.1758874 23.8876985,20.7490884 23.6795833,20.4035417 C23.5166667,20.0777083 22.2133333,16.8902083 21.664375,15.5939583 C21.1154167,14.2977083 20.5770833,14.5102083 20.1945833,14.5102083 C19.8120833,14.5102083 19.38,14.4570833 18.944375,14.4570833 C18.2766029,14.4725718 17.645357,14.7651004 17.201875,15.2645833 C15.7137729,16.6658358 14.8845516,18.628969 14.9175,20.6727083 C14.9175,23.8602083 17.255,26.945 17.584375,27.3770833 C17.91375,27.8091667 22.1070833,34.5702083 28.7477083,37.16625 C35.3883333,39.7622917 35.391875,38.8945833 36.5889583,38.7847917 C37.7860417,38.675 40.4564583,37.2158333 40.9983333,35.7035417 C41.5402083,34.19125 41.54375,32.8702083 41.3772917,32.6116667 C41.2108333,32.353125 40.77875,32.1654167 40.1235417,31.8395833 L40.1270833,31.8395833 Z" id="Shape" fill-rule="nonzero"></path>
                        </g>
                    </g>
                </g>
            </g>
        </g>
    </g>
</svg>