<?xml version="1.0" encoding="UTF-8"?>
<svg width="11px" height="10px" viewBox="0 0 11 10" version="1.1" xmlns="http://www.w3.org/2000/svg" xmlns:xlink="http://www.w3.org/1999/xlink">
    <!-- Generator: Sketch 63.1 (92452) - https://sketch.com -->
    <title>Fill 4</title>
    <desc>Created with Sketch.</desc>
    <g id="Page-1" stroke="none" stroke-width="1" fill="none" fill-rule="evenodd">
        <g id="1.-home" transform="translate(-756.000000, -964.000000)" fill="#FF595A">
            <g id="propuesta-de-valor" transform="translate(412.000000, 856.000000)">
                <g id="Group-4" transform="translate(114.000000, 106.000000)">
                    <g id="Group-10" transform="translate(147.500000, 0.000000)">
                        <path d="M84.7935,8.737 C85.2325,8.356 85.8505,8.063 86.6125,7.886 C85.7315,7.886 84.9695,7.799 84.4115,7.622 C83.6195,7.358 83.1495,6.889 83.1495,6.067 C83.1495,4.688 84.1765,4.336 84.9985,4.425 C85.9375,4.511 86.6715,5.334 87.2865,5.95 C86.8475,5.216 86.4955,4.248 86.5825,3.514 C86.6415,2.781 87.1105,2.253 88.2555,2.253 C89.3415,2.253 89.7815,2.722 89.8985,3.397 C89.9865,4.101 89.7235,5.011 89.3995,5.802 C90.1625,5.129 91.1605,4.483 91.8355,4.483 C92.8035,4.483 93.4795,5.098 93.4795,6.302 C93.4795,7.446 92.6865,7.945 91.4255,7.945 C91.0425,7.945 90.6325,7.916 90.2215,7.828 C90.7795,8.091 91.3955,8.473 91.8355,8.943 C92.9805,10.263 92.2745,11.995 90.5735,11.995 C89.8695,11.995 89.3415,11.584 88.9305,11.026 C88.5775,10.556 88.3435,9.941 88.1965,9.354 C88.0505,10 87.8455,10.587 87.5515,11.026 C87.1695,11.613 86.6715,11.995 85.9675,11.995 C84.0005,11.995 83.4725,9.911 84.7935,8.737" id="Fill-4"></path>
                    </g>
                </g>
            </g>
        </g>
    </g>
</svg>