<?xml version="1.0" encoding="UTF-8"?>
<svg width="16px" height="15px" viewBox="0 0 16 15" version="1.1" xmlns="http://www.w3.org/2000/svg" xmlns:xlink="http://www.w3.org/1999/xlink">
    <!-- Generator: Sketch 63.1 (92452) - https://sketch.com -->
    <title>Fill 1</title>
    <desc>Created with Sketch.</desc>
    <g id="Page-1" stroke="none" stroke-width="1" fill="none" fill-rule="evenodd">
        <g id="1.-home" transform="translate(-712.000000, -962.000000)" fill="#FF595A">
            <g id="propuesta-de-valor" transform="translate(412.000000, 856.000000)">
                <g id="Group-4" transform="translate(114.000000, 106.000000)">
                    <g id="Group-10" transform="translate(147.500000, 0.000000)">
                        <path d="M41.6109,9.4831 C42.2549,8.9251 43.1549,8.4971 44.2709,8.2391 C42.9839,8.2391 41.8679,8.1101 41.0529,7.8531 C39.8939,7.4661 39.2079,6.7801 39.2079,5.5781 C39.2079,3.5611 40.7099,3.0461 41.9109,3.1751 C43.2849,3.3041 44.3569,4.5051 45.2569,5.4071 C44.6149,4.3341 44.0989,2.9181 44.2279,1.8451 C44.3139,0.7721 45.0009,0.0001 46.6739,0.0001 C48.2619,0.0001 48.9059,0.6861 49.0779,1.6731 C49.2059,2.7031 48.8199,4.0331 48.3469,5.1921 C49.4639,4.2051 50.9229,3.2611 51.9099,3.2611 C53.3259,3.2611 54.3129,4.1631 54.3129,5.9211 C54.3129,7.5951 53.1539,8.3251 51.3089,8.3251 C50.7509,8.3251 50.1499,8.2821 49.5489,8.1531 C50.3649,8.5401 51.2649,9.0971 51.9099,9.7841 C53.5839,11.7151 52.5529,14.2471 50.0639,14.2471 C49.0339,14.2471 48.2619,13.6461 47.6609,12.8311 C47.1459,12.1441 46.8019,11.2431 46.5889,10.3841 C46.3739,11.3291 46.0739,12.1871 45.6439,12.8311 C45.0869,13.6891 44.3569,14.2471 43.3269,14.2471 C40.4519,14.2471 39.6789,11.2001 41.6109,9.4831" id="Fill-1"></path>
                    </g>
                </g>
            </g>
        </g>
    </g>
</svg>