<?xml version="1.0" encoding="UTF-8"?>
<svg width="20px" height="26px" viewBox="0 0 20 26" version="1.1" xmlns="http://www.w3.org/2000/svg" xmlns:xlink="http://www.w3.org/1999/xlink">
    <!-- Generator: Sketch 63.1 (92452) - https://sketch.com -->
    <title>Shape</title>
    <desc>Created with Sketch.</desc>
    <g id="Page-1" stroke="none" stroke-width="1" fill="none" fill-rule="evenodd">
        <g id="3.-encuentranos" transform="translate(-863.000000, -598.000000)" fill="#FCDC3E" fill-rule="nonzero">
            <g id="pointers" transform="translate(550.000000, 529.000000)">
                <path d="M332.511978,75.7640625 C331.58875,72.8085938 329.157395,70.4015117 326.172124,69.4875 C325.12574,69.1675273 324.048581,69 323.002197,69 C320.863266,69 318.801326,69.6550781 317.07787,70.9348164 C314.52336,72.7933594 313,75.7640625 313,78.9023438 C313,81.0655742 313.69246,83.1223164 315.000439,84.8438008 L323.002197,95 L331.003955,84.8438008 C332.958179,82.2539062 333.512198,78.9480977 332.511978,75.7640625 Z M323.002197,84.234375 C320.032314,84.234375 317.616399,81.8425781 317.616399,78.9023438 C317.616399,75.9621094 320.032314,73.5703125 323.002197,73.5703125 C325.97208,73.5703125 328.387995,75.9621094 328.387995,78.9023438 C328.387995,81.8425781 325.97208,84.234375 323.002197,84.234375 Z" id="Shape"></path>
            </g>
        </g>
    </g>
</svg>