<?xml version="1.0" encoding="UTF-8"?>
<svg width="48px" height="57px" viewBox="0 0 48 57" version="1.1" xmlns="http://www.w3.org/2000/svg" xmlns:xlink="http://www.w3.org/1999/xlink">
    <!-- Generator: Sketch 63.1 (92452) - https://sketch.com -->
    <title>Video</title>
    <desc>Created with Sketch.</desc>
    <g id="Page-1" stroke="none" stroke-width="1" fill="none" fill-rule="evenodd">
        <g id="4.-nosotros" transform="translate(-697.000000, -431.000000)" fill="#FCDC3E">
            <g id="Group" transform="translate(222.000000, 206.000000)">
                <path d="M479.444444,225.44358 C479,225.22179 478.333333,225 477.888889,225 C476.333333,225 475,226.330739 475,227.883268 L475,234.758755 L475,236.976654 L475,237.420233 L475,269.579767 L475,270.023346 L475,274.237354 L475,279.116732 C475,280.669261 476.333333,282 477.888889,282 C478.555556,282 479,281.77821 479.666667,281.55642 L521.444444,256.937743 C522.333333,256.050584 523,254.941634 523,253.389105 C522.777778,252.058366 522.333333,250.949416 521.222222,250.062257 L479.444444,225.44358 Z" id="Video"></path>
            </g>
        </g>
    </g>
</svg>