<?xml version="1.0" encoding="UTF-8"?>
<svg width="20px" height="16px" viewBox="0 0 20 16" version="1.1" xmlns="http://www.w3.org/2000/svg" xmlns:xlink="http://www.w3.org/1999/xlink">
    <!-- Generator: Sketch 63.1 (92452) - https://sketch.com -->
    <title>Icons/Mail</title>
    <desc>Created with Sketch.</desc>
    <g id="Icons/Mail" stroke="none" stroke-width="1" fill="none" fill-rule="evenodd">
        <path d="M20,5.5141484 L20,13.4088669 C20,13.8466749 19.8253024,14.2208891 19.4754773,14.5325544 C19.1257694,14.8442196 18.7053459,15 18.2143632,15 L18.2143632,15 L1.78575407,15 C1.29465411,15 0.87419155,14.8442196 0.524522748,14.5325544 C0.174775764,14.2209936 1.77635684e-13,13.8466401 1.77635684e-13,13.4088669 L1.77635684e-13,13.4088669 L1.77635684e-13,5.5141484 C0.327386944,5.83890853 0.703129428,6.12744876 1.12734473,6.37917704 C3.82075223,8.00980375 5.66967732,9.15344698 6.6741982,9.809654 C7.09825713,10.0879551 7.4424141,10.3052049 7.70647366,10.4608808 C7.9706114,10.6166612 8.32223475,10.7757501 8.76114826,10.9380779 C9.20006176,11.1006495 9.60934431,11.1816915 9.98880043,11.1816915 L9.98880043,11.1816915 L10.011395,11.1816915 C10.3909293,11.1816915 10.7999773,11.1006495 11.2388908,10.9380779 C11.6779607,10.7757501 12.0293495,10.6166612 12.2935654,10.4608808 C12.5577814,10.3052049 12.9018211,10.0879551 13.3259191,9.809654 C14.5906295,8.99421875 16.4435419,7.85064517 18.8837571,6.37917704 C19.3080897,6.12072718 19.6800013,5.83218695 20,5.5141484 L20,5.5141484 Z M18.2142068,1 C18.6976841,1 19.1162703,1.15571073 19.4696918,1.46730632 C19.8231524,1.77883226 19.9999609,2.15339474 19.9999609,2.59095896 C19.9999609,3.11458025 19.8177579,3.61507653 19.4529608,4.09216919 C19.0884375,4.56947081 18.6346694,4.97722326 18.0915393,5.31514793 C15.2940326,7.04534452 13.5528031,8.12257301 12.8683983,8.54672889 C12.7940081,8.5932227 12.6357679,8.69415083 12.3940292,8.85007052 C12.1521343,9.00595539 11.951363,9.13192401 11.7913636,9.22801121 C11.6313643,9.32402877 11.4379421,9.43167848 11.2110581,9.55109966 C10.9842913,9.67017257 10.7701509,9.75992129 10.5693406,9.8192662 C10.3684129,9.87906385 10.1823399,9.90873631 10.0112387,9.90873631 L10.0112387,9.90873631 L9.98876134,9.90873631 C9.81766013,9.90873631 9.63166526,9.87909868 9.43073763,9.8192662 C9.22984909,9.75992129 9.01590416,9.67027705 8.78894194,9.55109966 C8.56190154,9.43181779 8.36847938,9.32406359 8.20848001,9.22801121 C8.0485979,9.13192401 7.84767028,9.00595539 7.60585348,8.85007052 C7.36407578,8.69429014 7.20603096,8.5932227 7.13164082,8.54672889 C6.45454599,8.12257301 5.47985153,7.51777039 4.20751837,6.73228621 C2.93522429,5.94680203 2.1725984,5.47441099 1.91960158,5.31535689 C1.45836713,5.03698609 1.02297181,4.65413481 0.613845634,4.16690755 C0.204680363,3.67971512 -2.25597319e-13,3.22717537 -2.25597319e-13,2.80956693 C-2.25597319e-13,2.29256273 0.154370274,1.86168527 0.463110821,1.51696937 C0.771890459,1.17232312 1.21275851,1 1.7856368,1 L1.7856368,1 Z" id="mail" fill="#FF595A"></path>
    </g>
</svg>