<?xml version="1.0" encoding="UTF-8"?>
<svg width="20px" height="16px" viewBox="0 0 20 16" version="1.1" xmlns="http://www.w3.org/2000/svg" xmlns:xlink="http://www.w3.org/1999/xlink">
    <!-- Generator: Sketch 63.1 (92452) - https://sketch.com -->
    <title>Icons/Person</title>
    <desc>Created with Sketch.</desc>
    <g id="Icons/Person" stroke="none" stroke-width="1" fill="none" fill-rule="evenodd">
        <path d="M15.828577,8.27586207 C19.5812322,8.94182571 20.071627,9.99390656 20.1311365,13.6861216 C20.1349214,13.9222939 20.1369278,13.9631431 20.137931,13.9420683 L20.137703,14.2289995 C20.137703,14.2289995 19.2441941,16 14.0691023,16 C8.89391929,16 8.00050161,14.2289995 8.00050161,14.2289995 L8.00050161,14.2289995 L8.00092078,13.8539647 C8.00230708,13.8545761 8.00484892,13.7945049 8.00921143,13.5661746 C8.07761315,9.97103817 8.59783104,8.93456163 12.3095364,8.27586207 C12.3095364,8.27586207 12.8378713,8.93774527 14.0691023,8.93774527 C15.3003333,8.93774527 15.828577,8.27586207 15.828577,8.27586207 Z M14.0690125,0 C16.8926994,0 17.3793103,1.72908997 17.3793103,3.86209153 C17.3793103,5.99504796 15.8971625,7.72413793 14.0690125,7.72413793 C12.2407686,7.72413793 10.7586207,5.99504796 10.7586207,3.86209153 C10.7586207,1.72908997 11.2453256,0 14.0690125,0 Z" id="person-ico" fill="#FF595A" fill-rule="nonzero"></path>
    </g>
</svg>