<?xml version="1.0" encoding="UTF-8"?>
<svg width="970px" height="970px" viewBox="0 0 970 970" version="1.1" xmlns="http://www.w3.org/2000/svg" xmlns:xlink="http://www.w3.org/1999/xlink">
    <!-- Generator: Sketch 63.1 (92452) - https://sketch.com -->
    <title>texture_01 copy 2</title>
    <desc>Created with Sketch.</desc>
    <g id="Page-1" stroke="none" stroke-width="1" fill="none" fill-rule="evenodd" opacity="0.179315476">
        <g id="3.-encuentranos" transform="translate(-235.000000, -123.000000)" fill="#ECECEC">
            <g id="texture_01" transform="translate(235.000000, 123.000000)">
                <g id="Group-10">
                    <path d="M484.975042,10.1248194 C420.868456,10.1248194 358.682139,22.6791975 300.143077,47.4391257 C243.598624,71.3550044 192.816125,105.595049 149.204615,149.204272 C105.594249,192.815782 71.3553475,243.599425 47.4394688,300.142733 C22.6795406,358.68294 10.1251625,420.868113 10.1251625,484.974699 C10.1251625,549.081286 22.6795406,611.267603 47.4394688,669.806665 C71.3553475,726.349974 105.594249,777.133617 149.204615,820.745127 C192.816125,864.355493 243.598624,898.595538 300.143077,922.511417 C358.682139,947.270201 420.868456,959.825723 484.975042,959.825723 C549.081629,959.825723 611.267946,947.270201 669.805865,922.511417 C726.350317,898.595538 777.13396,864.355493 820.744326,820.745127 C864.355836,777.133617 898.594737,726.349974 922.510616,669.806665 C947.270544,611.267603 959.824922,549.081286 959.824922,484.974699 C959.824922,420.868113 947.270544,358.68294 922.510616,300.142733 C898.594737,243.599425 864.355836,192.815782 820.744326,149.204272 C777.13396,105.595049 726.350317,71.3550044 669.805865,47.4391257 C611.267946,22.6791975 549.081629,10.1248194 484.975042,10.1248194 M484.975042,969.949742 C419.505167,969.949742 355.993304,957.127738 296.198461,931.83599 C238.447406,907.410022 186.582968,872.442585 142.046206,827.903536 C97.5083004,783.366773 62.5408634,731.502335 38.1137515,673.751281 C12.8231472,613.957582 0,550.444574 0,484.974699 C0,419.505968 12.8231472,355.992961 38.1137515,296.199261 C62.5408634,238.448207 97.5083004,186.583769 142.046206,142.045863 C186.582968,97.5079572 238.447406,62.5405203 296.198461,38.1145521 C355.993304,12.8228041 419.505167,-0.000343109541 484.975042,-0.000343109541 C550.443774,-0.000343109541 613.956781,12.8228041 673.750481,38.1145521 C731.501535,62.5405203 783.365973,97.5079572 827.903879,142.045863 C872.441784,186.583769 907.409221,238.448207 931.83519,296.199261 C957.126938,355.992961 969.948941,419.505968 969.948941,484.974699 C969.948941,550.444574 957.126938,613.957582 931.83519,673.751281 C907.409221,731.501192 872.441784,783.366773 827.903879,827.903536 C783.365973,872.442585 731.501535,907.410022 673.750481,931.83599 C613.956781,957.127738 550.443774,969.949742 484.975042,969.949742" id="Fill-1"></path>
                    <path d="M484.974585,60.4698542 C427.662711,60.4698542 372.069816,71.6929673 319.741036,93.82582 C269.192995,115.204976 223.79274,145.816065 184.80406,184.804746 C145.815379,223.79457 115.205433,269.193681 93.8251338,319.740579 C71.692281,372.070502 60.4703117,427.663397 60.4703117,484.975271 C60.4703117,542.287145 71.692281,597.88004 93.8251338,650.20882 C115.205433,700.758005 145.815379,746.157116 184.80406,785.145796 C223.79274,824.134477 269.192995,854.744423 319.741036,876.124722 C372.069816,898.257575 427.662711,909.480688 484.974585,909.480688 C542.287603,909.480688 597.879354,898.257575 650.208134,876.124722 C700.757319,854.744423 746.156429,824.134477 785.146254,785.145796 C824.134935,746.157116 854.744881,700.758005 876.124036,650.20882 C898.258033,597.88004 909.480002,542.287145 909.480002,484.975271 C909.480002,427.663397 898.258033,372.070502 876.124036,319.740579 C854.744881,269.193681 824.134935,223.79457 785.146254,184.804746 C746.156429,145.816065 700.757319,115.204976 650.208134,93.82582 C597.879354,71.6929673 542.287603,60.4698542 484.974585,60.4698542 M484.974585,929.729869 C424.937278,929.729869 366.691002,917.969218 311.852948,894.775013 C258.890559,872.374535 211.327571,840.306374 170.484955,799.464901 C129.643482,758.622285 97.5764648,711.059297 75.1748429,658.096908 C51.9806379,603.258854 40.2199866,545.012579 40.2199866,484.975271 C40.2199866,424.937964 51.9806379,366.691688 75.1748429,311.853634 C97.5764648,258.891245 129.643482,211.327113 170.484955,170.485641 C211.327571,129.643025 258.890559,97.5760073 311.852948,75.1755291 C366.691002,51.9801804 424.937278,40.2206728 484.974585,40.2206728 C545.011892,40.2206728 603.258168,51.9801804 658.097366,75.1755291 C711.058611,97.5760073 758.621599,129.643025 799.464215,170.485641 C840.305687,211.327113 872.373849,258.891245 894.774327,311.853634 C917.968532,366.691688 929.729183,424.937964 929.729183,484.975271 C929.729183,545.012579 917.968532,603.258854 894.774327,658.096908 C872.373849,711.059297 840.305687,758.622285 799.464215,799.464901 C758.621599,840.306374 711.058611,872.374535 658.097366,894.775013 C603.258168,917.969218 545.011892,929.729869 484.974585,929.729869" id="Fill-4"></path>
                    <path d="M484.974585,151.141468 C439.901428,151.141468 396.183554,159.966246 355.036714,177.369905 C315.285187,194.182273 279.582352,218.255982 248.918652,248.918538 C218.254952,279.582237 194.182387,315.285072 177.368876,355.0366 C159.965216,396.18344 151.140439,439.901314 151.140439,484.975614 C151.140439,530.048771 159.965216,573.766645 177.368876,614.913485 C194.182387,654.665012 218.254952,690.368991 248.918652,721.031547 C279.582352,751.695247 315.285187,775.767812 355.036714,792.581323 C396.183554,809.983839 439.901428,818.808617 484.974585,818.808617 C530.048885,818.808617 573.765616,809.983839 614.913599,792.581323 C654.665127,775.767812 690.367962,751.695247 721.030518,721.031547 C751.694217,690.368991 775.766783,654.665012 792.580294,614.913485 C809.983954,573.766645 818.808731,530.048771 818.808731,484.975614 C818.808731,439.901314 809.983954,396.18344 792.580294,355.0366 C775.766783,315.285072 751.694217,279.582237 721.030518,248.918538 C690.367962,218.255982 654.665127,194.182273 614.913599,177.369905 C573.765616,159.966246 530.048885,151.141468 484.974585,151.141468 M484.974585,847.665273 C436.018572,847.665273 388.518487,838.073074 343.795302,819.157445 C300.604673,800.888005 261.818427,774.739627 228.515071,741.436271 C195.210572,708.131772 169.06105,669.345526 150.792755,626.154897 C131.877126,581.431712 122.284927,533.931627 122.284927,484.975614 C122.284927,436.018458 131.877126,388.518373 150.792755,343.795188 C169.06105,300.605703 195.210572,261.818313 228.515071,228.513813 C261.818427,195.210458 300.604673,169.060936 343.795302,150.79264 C388.518487,131.875867 436.018572,122.285956 484.974585,122.285956 C533.931742,122.285956 581.430683,131.875867 626.153868,150.79264 C669.344497,169.060936 708.130743,195.210458 741.435242,228.513813 C774.738598,261.818313 800.88812,300.605703 819.156415,343.795188 C838.073188,388.518373 847.664243,436.018458 847.664243,484.975614 C847.664243,533.931627 838.073188,581.431712 819.156415,626.154897 C800.88812,669.345526 774.738598,708.131772 741.435242,741.436271 C708.130743,774.739627 669.344497,800.888005 626.153868,819.157445 C581.430683,838.073074 533.931742,847.665273 484.974585,847.665273" id="Fill-6"></path>
                    <path d="M484.974585,103.872296 C433.524166,103.872296 383.615452,113.94828 336.634606,133.820041 C291.253795,153.014732 250.495812,180.493231 215.495208,215.494979 C180.49346,250.496727 153.014961,291.253566 133.819126,336.634377 C113.948508,383.615223 103.872525,433.523937 103.872525,484.9755 C103.872525,536.425919 113.948508,586.334633 133.819126,633.315479 C153.014961,678.697434 180.49346,719.453129 215.495208,754.454877 C250.495812,789.456625 291.253795,816.936268 336.634606,836.130959 C383.615452,856.00272 433.524166,866.076416 484.974585,866.076416 C536.425004,866.076416 586.333718,856.00272 633.315707,836.130959 C678.696519,816.936268 719.453358,789.456625 754.455106,754.454877 C789.456853,719.453129 816.935353,678.697434 836.130044,633.315479 C856.001805,586.334633 866.076645,536.425919 866.076645,484.9755 C866.076645,433.523937 856.001805,383.615223 836.130044,336.634377 C816.935353,291.253566 789.456853,250.496727 754.455106,215.494979 C719.453358,180.493231 678.696519,153.014732 633.315707,133.820041 C586.333718,113.94828 536.425004,103.872296 484.974585,103.872296 M484.974585,876.202722 C432.162021,876.202722 380.925473,865.856826 332.68999,845.455533 C286.102577,825.750752 244.263799,797.542573 208.335656,761.615573 C172.408656,725.686286 144.200477,683.847508 124.494552,637.260095 C104.093259,589.023468 93.748506,537.788064 93.748506,484.9755 C93.748506,432.161792 104.093259,380.925244 124.494552,332.689761 C144.200477,286.102348 172.408656,244.263571 208.335656,208.335427 C244.263799,172.407283 286.102577,144.200248 332.68999,124.494323 C380.925473,104.091886 432.162021,93.7471336 484.974585,93.7471336 C537.788293,93.7471336 589.023697,104.091886 637.25918,124.494323 C683.846593,144.200248 725.686514,172.407283 761.613514,208.335427 C797.541658,244.263571 825.749837,286.102348 845.454618,332.689761 C865.857055,380.925244 876.201808,432.161792 876.201808,484.9755 C876.201808,537.788064 865.857055,589.023468 845.454618,637.260095 C825.749837,683.847508 797.541658,725.686286 761.613514,761.615573 C725.686514,797.542573 683.846593,825.750752 637.25918,845.455533 C589.023697,865.856826 537.788293,876.202722 484.974585,876.202722" id="Fill-8"></path>
                </g>
            </g>
        </g>
    </g>
</svg>