<svg width="646" height="646" viewBox="0 0 646 646" version="1.1" xmlns="http://www.w3.org/2000/svg" xmlns:xlink="http://www.w3.org/1999/xlink"><title>circles copy 2</title><defs><path id="path-1" d="M0 .127h644.822V644.43H0z"/></defs><g id="Page-1" stroke="none" stroke-width="1" fill="none" fill-rule="evenodd"><g id="4.-nosotros" transform="translate(-724 -2868)"><g id="circles-copy-2" transform="translate(723 2867)"><g id="Group-10" transform="translate(1.525 1.523)"><g id="Group-3" transform="translate(0 .146)"><mask id="mask-2" fill="#fff"><use xlink:href="#path-1"/></mask><path d="M640.373 344.622l-11.192 26.995a58.584 58.584 0 0 0-4.45 22.352v29.23a58.396 58.396 0 0 1-17.123 41.309l-20.673 20.656a58.351 58.351 0 0 0-12.674 18.956l-11.193 26.995a58.449 58.449 0 0 1-31.632 31.607L504.4 573.908a58.724 58.724 0 0 0-18.955 12.664l-20.69 20.673a58.444 58.444 0 0 1-41.326 17.093h-29.25a58.327 58.327 0 0 0-22.37 4.46l-27.02 11.186a58.515 58.515 0 0 1-44.742 0l-27.017-11.186a58.401 58.401 0 0 0-22.37-4.46h-29.254a58.494 58.494 0 0 1-41.342-17.093l-20.67-20.673a58.63 58.63 0 0 0-18.974-12.664l-27.017-11.186a58.374 58.374 0 0 1-31.632-31.607L70.575 504.12a58.563 58.563 0 0 0-12.674-18.956l-20.69-20.656a58.41 58.41 0 0 1-17.123-41.31V393.97c0-7.653-1.499-15.26-4.447-22.352L4.446 344.622a58.41 58.41 0 0 1 0-44.706l11.195-26.995a58.207 58.207 0 0 0 4.447-22.353v-29.23a58.37 58.37 0 0 1 17.123-41.292l20.69-20.672a58.67 58.67 0 0 0 12.674-18.94l11.196-27.011a58.374 58.374 0 0 1 31.632-31.607L140.42 70.63a58.323 58.323 0 0 0 18.974-12.668l20.67-20.653a58.51 58.51 0 0 1 41.342-17.11h29.253a58.638 58.638 0 0 0 22.371-4.446L300.047 4.57a58.515 58.515 0 0 1 44.742 0l27.02 11.183a58.563 58.563 0 0 0 22.37 4.446h29.25a58.46 58.46 0 0 1 41.326 17.11l20.69 20.653A58.415 58.415 0 0 0 504.4 70.63l27.036 11.186a58.449 58.449 0 0 1 31.632 31.607l11.193 27.011a58.458 58.458 0 0 0 12.674 18.94l20.673 20.672a58.357 58.357 0 0 1 17.123 41.293v29.23c0 7.67 1.52 15.26 4.45 22.352l11.192 26.995a58.38 58.38 0 0 1 0 44.706" id="Fill-1" fill="#455BA6" mask="url(#mask-2)"/></g><path d="M575.327 340.197l-8.906 21.473a46.627 46.627 0 0 0-3.536 17.781v23.246a46.441 46.441 0 0 1-13.621 32.859l-16.443 16.432a46.277 46.277 0 0 0-10.082 15.078l-8.903 21.473a46.501 46.501 0 0 1-25.162 25.142l-21.504 8.895a46.67 46.67 0 0 0-15.076 10.075l-16.46 16.442a46.48 46.48 0 0 1-32.871 13.597h-23.265a46.372 46.372 0 0 0-17.795 3.55l-21.49 8.895a46.543 46.543 0 0 1-35.59 0l-21.491-8.895a46.422 46.422 0 0 0-17.795-3.55h-23.265a46.518 46.518 0 0 1-32.889-13.597l-16.439-16.442a46.633 46.633 0 0 0-15.093-10.075l-21.49-8.895A46.431 46.431 0 0 1 131 488.54l-8.906-21.473a46.594 46.594 0 0 0-10.082-15.078l-16.456-16.432a46.441 46.441 0 0 1-13.62-32.859v-23.246c0-6.09-1.194-12.14-3.54-17.78l-8.902-21.474a46.436 46.436 0 0 1 0-35.561l8.902-21.473a46.24 46.24 0 0 0 3.54-17.777v-23.25a46.416 46.416 0 0 1 13.62-32.845l16.456-16.443a46.73 46.73 0 0 0 10.082-15.068l8.906-21.486a46.415 46.415 0 0 1 25.16-25.139l21.49-8.898a46.421 46.421 0 0 0 15.093-10.074l16.44-16.43a46.53 46.53 0 0 1 32.888-13.61h23.265a46.718 46.718 0 0 0 17.795-3.533l21.49-8.899a46.573 46.573 0 0 1 35.59 0l21.49 8.9a46.668 46.668 0 0 0 17.796 3.532h23.265a46.492 46.492 0 0 1 32.871 13.61l16.46 16.43a46.457 46.457 0 0 0 15.076 10.074l21.504 8.898a46.485 46.485 0 0 1 25.162 25.139l8.903 21.486a46.41 46.41 0 0 0 10.082 15.068l16.443 16.443a46.416 46.416 0 0 1 13.621 32.845v23.25c0 6.102 1.206 12.139 3.536 17.777l8.906 21.473a46.466 46.466 0 0 1 0 35.561" id="Fill-4" fill="#EB5C5D"/><path d="M507.406 335.424l-6.513 15.706a34.1 34.1 0 0 0-2.585 13.006v17.003a33.98 33.98 0 0 1-9.963 24.037l-12.03 12.016a33.917 33.917 0 0 0-7.373 11.03l-6.514 15.71a33.997 33.997 0 0 1-18.403 18.388l-15.731 6.508a34.121 34.121 0 0 0-11.026 7.368l-12.04 12.026a34.003 34.003 0 0 1-24.042 9.948h-17.021c-4.466 0-8.886.88-13.013 2.593l-15.722 6.508a34.057 34.057 0 0 1-26.03 0l-15.72-6.508a33.984 33.984 0 0 0-13.017-2.593h-17.018a34.027 34.027 0 0 1-24.052-9.948l-12.03-12.026a34.071 34.071 0 0 0-11.039-7.368l-15.718-6.508a33.965 33.965 0 0 1-18.403-18.389l-6.514-15.708a34.129 34.129 0 0 0-7.373-11.03l-12.04-12.017a33.98 33.98 0 0 1-9.963-24.037v-17.003c0-4.453-.87-8.88-2.585-13.006l-6.513-15.706a33.948 33.948 0 0 1 0-26.008l6.513-15.71a33.85 33.85 0 0 0 2.585-13.005v-17.004a33.962 33.962 0 0 1 9.963-24.026l12.04-12.027a34.158 34.158 0 0 0 7.373-11.02l6.514-15.716a33.965 33.965 0 0 1 18.403-18.388l15.718-6.508a33.975 33.975 0 0 0 11.04-7.371l12.029-12.017a34.033 34.033 0 0 1 24.052-9.954h17.018c4.46 0 8.886-.88 13.016-2.587l15.722-6.508a34.057 34.057 0 0 1 26.03 0l15.72 6.508a34.049 34.049 0 0 0 13.014 2.587h17.02a34.01 34.01 0 0 1 24.043 9.954l12.04 12.017a34.025 34.025 0 0 0 11.026 7.371l15.731 6.508a33.997 33.997 0 0 1 18.403 18.388l6.514 15.716a33.945 33.945 0 0 0 7.374 11.02l12.03 12.027a33.962 33.962 0 0 1 9.962 24.026v17.004c0 4.466.88 8.882 2.585 13.006l6.513 15.709a33.948 33.948 0 0 1 0 26.008" id="Fill-6" fill="#FDDD41"/><path d="M429.103 329.922l-3.755 9.058a19.655 19.655 0 0 0-1.495 7.5v9.809c0 5.2-2.067 10.187-5.746 13.86l-6.935 6.932a19.555 19.555 0 0 0-4.254 6.362l-3.755 9.058a19.628 19.628 0 0 1-10.614 10.605l-9.072 3.752c-2.376.99-4.539 2.431-6.36 4.25l-6.942 6.937a19.608 19.608 0 0 1-13.867 5.734h-9.816c-2.576 0-5.125.512-7.507 1.498l-9.066 3.755a19.665 19.665 0 0 1-15.013 0l-9.066-3.755a19.64 19.64 0 0 0-7.506-1.498h-9.813a19.611 19.611 0 0 1-13.874-5.734l-6.936-6.936a19.75 19.75 0 0 0-6.367-4.25l-9.065-3.753a19.601 19.601 0 0 1-10.617-10.605l-3.755-9.058a19.608 19.608 0 0 0-4.254-6.362l-6.942-6.933a19.584 19.584 0 0 1-5.745-13.86v-9.808c0-2.57-.502-5.12-1.492-7.5l-3.755-9.058a19.59 19.59 0 0 1 0-15.002l3.755-9.058a19.502 19.502 0 0 0 1.492-7.5v-9.806c0-5.2 2.067-10.183 5.745-13.856l6.942-6.936a19.7 19.7 0 0 0 4.254-6.359l3.755-9.064a19.601 19.601 0 0 1 10.617-10.606l9.065-3.752a19.644 19.644 0 0 0 6.367-4.25l6.936-6.93a19.618 19.618 0 0 1 13.874-5.74h9.813c2.572 0 5.124-.508 7.506-1.491l9.066-3.756a19.635 19.635 0 0 1 15.013 0l9.066 3.756a19.683 19.683 0 0 0 7.507 1.49h9.816a19.614 19.614 0 0 1 13.867 5.742l6.942 6.93a19.616 19.616 0 0 0 6.36 4.25l9.072 3.751a19.628 19.628 0 0 1 10.614 10.606l3.755 9.064a19.647 19.647 0 0 0 4.254 6.359l6.935 6.936a19.576 19.576 0 0 1 5.746 13.856v9.805c0 2.577.512 5.12 1.495 7.501l3.755 9.058a19.59 19.59 0 0 1 0 15.002" id="Fill-8" fill="#86CBCA"/></g></g></g></g></svg>