<svg width="120" height="60" viewBox="0 0 120 60" version="1.1" xmlns="http://www.w3.org/2000/svg"><title>IGP_yiju_blanco</title><g id="IGP_yiju_blanco" stroke="none" stroke-width="1" fill="none" fill-rule="evenodd"><g id="YIJU_IGP-16" fill="#FFF" fill-rule="nonzero"><path d="M73.085 14.568c-.678 0-1.228.55-1.228 1.229v12.102c-.02 10.968 7.535 17.152 15.788 17.152 9.42 0 15.817-7.593 15.817-15.973V15.973c0-.79-.64-1.43-1.43-1.43H92.15c-.79 0-1.437.64-1.405 1.745v13.2a3.104 3.104 0 0 1-3.088 3.154 3.035 3.035 0 0 1-3.039-3.105V15.813c0-.679-.55-1.229-1.228-1.229l-10.305-.016zM51.362 59.635c9.42 0 15.818-7.589 15.818-15.972V16.059c0-.79-.64-1.431-1.43-1.434h-9.895c-.79 0-1.437.643-1.404 1.75V44.1a3.104 3.104 0 0 1-3.089 3.154h-3.186c-.969 0-1.755.784-1.757 1.753l-.577 8.842a1.753 1.753 0 0 0 1.732 1.757l3.788.028zM30.164 14.519h-9.895c-.79 0-1.438.639-1.405 1.744v12.082a3.109 3.109 0 0 1-3.088 3.142 3.035 3.035 0 0 1-3.039-3.105V15.813c0-.679-.55-1.229-1.228-1.229H1.229c-.679 0-1.229.55-1.229 1.229v10.35C0 37.13 5.115 43.29 15.797 43.29c1.036 0 2.07-.097 3.088-.29v1.683a3.109 3.109 0 0 1-3.088 3.153H8.453a1.753 1.753 0 0 0-1.757 1.753v8.26c0 .962.772 1.744 1.733 1.758l7.347.028c11.57 0 15.817-7.589 15.817-15.972V15.948c0-.79-.64-1.43-1.43-1.43zM115.818 41.836h-5.062a.938.938 0 0 1-.933-.86l-3.031-25.663a.938.938 0 0 1 .921-1.02h11.218a.941.941 0 0 1 .938 1.02l-3.125 25.663a.942.942 0 0 1-.938.86M119.705 51.817a6.373 6.373 0 1 1-6.368-6.356 6.373 6.373 0 0 1 6.368 6.368M46.116 42.7h-6.221a.942.942 0 0 1-.934-.864l-3.035-26.19a.942.942 0 0 1 .934-1.02h12.377a.938.938 0 0 1 .938 1.02l-3.125 26.21a.946.946 0 0 1-.938.865M52.202 9.83c0 .28-.111.548-.311.745a1.028 1.028 0 0 1-.746.311c-3.243 0-4.701 3.383-8.084 0-2.908-2.912-5.35 0-8.097 0a1.057 1.057 0 0 1-.074-2.11c0-4.504 3.662-8.465 8.167-8.465s8.158 3.965 8.19 8.466c.542.053.955.508.955 1.052M55.06 8.334l1.2-.692c.236.692.91 1.135 1.639 1.077.844 0 1.139-.352 1.139-.745 0-.524-.48-.725-1.536-1.028-1.057-.303-2.146-.766-2.146-2.11 0-1.342 1.118-2.096 2.338-2.096a2.707 2.707 0 0 1 2.544 1.585L59.058 5a1.4 1.4 0 0 0-1.364-.905c-.59 0-.934.303-.934.704 0 .401.275.668 1.352.991 1.077.324 2.33.725 2.33 2.167 0 1.318-1.069 2.125-2.584 2.125-1.515 0-2.412-.696-2.797-1.744M66.05 6.844V9.94h-1.316V7.003a.942.942 0 0 0-1.007-1.036c-.639 0-1.118.373-1.118 1.229v2.723h-1.31V4.915h1.31v.565a1.737 1.737 0 0 1 1.515-.705c1.081 0 1.925.746 1.925 2.085" id="Path"/><path d="M72.348 4.915V9.94h-1.315v-.594c-.408.49-1.021.76-1.658.733a2.56 2.56 0 0 1-2.458-2.662 2.556 2.556 0 0 1 2.458-2.658 2.023 2.023 0 0 1 1.658.733v-.577h1.315zm-1.315 2.518a1.409 1.409 0 1 0-1.408 1.41 1.36 1.36 0 0 0 1.413-1.426" id="Shape"/><path d="M73.274 7.417A2.613 2.613 0 0 1 75.96 4.76a2.568 2.568 0 0 1 2.265 1.298l-1.13.656a1.253 1.253 0 0 0-1.16-.676 1.376 1.376 0 1 0 0 2.752c.487.024.943-.234 1.172-.663l1.139.643a2.678 2.678 0 0 1-4.985-1.352M82.116 9.94l-1.851-2.29v2.29H78.95V2.883h1.315v4.235l1.749-2.22h1.564l-2.044 2.49L83.64 9.94zM92.343 2.883V9.94h-1.397V7.016H88.3V9.94h-1.404V2.883H88.3v2.802h2.646V2.883z" id="Path"/><path d="M96.147 8.9c.438.018.858-.168 1.139-.504l1.057.614a2.58 2.58 0 0 1-2.216 1.077c-1.712 0-2.79-1.159-2.79-2.662a2.584 2.584 0 0 1 2.688-2.658 2.556 2.556 0 0 1 2.572 2.658c0 .18-.016.36-.05.537H94.71c.184.663.745.946 1.437.946m1.139-1.946a1.229 1.229 0 0 0-1.261-1.02 1.27 1.27 0 0 0-1.336 1.02h2.597z" id="Shape"/><path id="Rectangle" d="M99.514 2.58h1.311v7.36h-1.311z"/><path d="M107.205 4.915V9.94h-1.31v-.594c-.409.49-1.022.76-1.659.733a2.56 2.56 0 0 1-2.457-2.662 2.56 2.56 0 0 1 2.457-2.658 2.048 2.048 0 0 1 1.659.733v-.577h1.31zm-1.31 2.518a1.409 1.409 0 1 0-1.417 1.426 1.364 1.364 0 0 0 1.417-1.426M113.566 2.867V9.94h-1.31v-.594c-.4.49-1.008.762-1.639.733a2.56 2.56 0 0 1-2.482-2.662 2.56 2.56 0 0 1 2.482-2.658 1.995 1.995 0 0 1 1.638.733V2.867h1.31zm-1.31 4.534a1.413 1.413 0 1 0-1.405 1.425 1.36 1.36 0 0 0 1.404-1.425M114.504 7.417a2.69 2.69 0 1 1 2.686 2.662 2.642 2.642 0 0 1-2.686-2.662m4.067 0a1.38 1.38 0 1 0-1.38 1.393 1.343 1.343 0 0 0 1.38-1.393" id="Shape"/></g></g></svg>