<svg width="620" height="620" viewBox="0 0 620 620" version="1.1" xmlns="http://www.w3.org/2000/svg"><title>Stroke 1</title><g id="Page-1" stroke="none" stroke-width="1" fill="none" fill-rule="evenodd"><g id="1.-home" transform="translate(-410 -854)" stroke="#455BA6" stroke-width="4"><g id="propuesta-de-valor" transform="translate(412 856)"><g id="Group-5"><path d="M611.754 329.363l-10.694 25.81a55.968 55.968 0 0 0-4.252 21.373v27.942a55.848 55.848 0 0 1-16.358 39.494l-19.746 19.749a55.726 55.726 0 0 0-12.112 18.123l-10.694 25.813a55.841 55.841 0 0 1-30.217 30.217l-25.825 10.693a56.136 56.136 0 0 0-18.11 12.11l-19.762 19.764a55.817 55.817 0 0 1-39.478 16.342h-27.942a55.689 55.689 0 0 0-21.378 4.265L329.38 611.75a55.87 55.87 0 0 1-42.742 0l-25.813-10.693a55.704 55.704 0 0 0-21.37-4.265h-27.94a55.85 55.85 0 0 1-39.497-16.342l-19.748-19.765a56.054 56.054 0 0 0-18.123-12.11l-25.813-10.692a55.806 55.806 0 0 1-30.22-30.217L67.42 481.854a55.96 55.96 0 0 0-12.106-18.123l-19.761-19.749a55.86 55.86 0 0 1-16.359-39.494v-27.942a55.79 55.79 0 0 0-4.252-21.374L4.25 329.362a55.87 55.87 0 0 1 0-42.74l10.693-25.81a55.727 55.727 0 0 0 4.252-21.371v-27.945a55.824 55.824 0 0 1 16.359-39.478l19.76-19.765a56.062 56.062 0 0 0 12.107-18.107l10.694-25.829a55.806 55.806 0 0 1 30.22-30.216l25.813-10.694a55.801 55.801 0 0 0 18.123-12.11l19.748-19.748a55.852 55.852 0 0 1 39.498-16.358h27.939a55.986 55.986 0 0 0 21.37-4.249L286.638 4.25a55.87 55.87 0 0 1 42.742 0l25.806 10.693a55.97 55.97 0 0 0 21.378 4.249h27.942a55.819 55.819 0 0 1 39.478 16.358l19.761 19.749a55.882 55.882 0 0 0 18.11 12.11L507.682 78.1a55.841 55.841 0 0 1 30.217 30.216l10.694 25.83a55.827 55.827 0 0 0 12.112 18.106l19.746 19.765a55.81 55.81 0 0 1 16.358 39.478v27.945c0 7.335 1.448 14.59 4.252 21.37l10.694 25.81a55.899 55.899 0 0 1 0 42.742z" id="Stroke-1"/></g></g></g></g></svg>