<svg width="570" height="570" viewBox="0 0 570 570" version="1.1" xmlns="http://www.w3.org/2000/svg"><title>Stroke 3</title><g id="Page-1" stroke="none" stroke-width="1" fill="none" fill-rule="evenodd"><g id="1.-home" transform="translate(-435 -879)" stroke="#EB5C5D" stroke-width="4"><g id="propuesta-de-valor" transform="translate(412 856)"><g id="Group-5"><path d="M587.099 327.626l-9.83 23.716a51.465 51.465 0 0 0-3.903 19.64v25.67a51.319 51.319 0 0 1-15.027 36.291l-18.145 18.144a51.331 51.331 0 0 0-11.128 16.656l-9.829 23.712a51.28 51.28 0 0 1-27.765 27.765l-23.73 9.829a51.606 51.606 0 0 0-16.637 11.128l-18.163 18.155a51.282 51.282 0 0 1-36.274 15.02H371a51.156 51.156 0 0 0-19.636 3.915l-23.72 9.829a51.327 51.327 0 0 1-39.27 0l-23.718-9.83a51.237 51.237 0 0 0-19.637-3.914h-25.67a51.318 51.318 0 0 1-36.291-15.02l-18.144-18.155a51.565 51.565 0 0 0-16.656-11.128l-23.712-9.83a51.22 51.22 0 0 1-27.765-27.764l-9.829-23.712a51.565 51.565 0 0 0-11.128-16.656l-18.159-18.144a51.338 51.338 0 0 1-15.031-36.292v-25.669c0-6.727-1.31-13.407-3.9-19.64l-9.829-23.716a51.327 51.327 0 0 1 0-39.27l9.83-23.719a51.064 51.064 0 0 0 3.899-19.63v-25.675a51.31 51.31 0 0 1 15.031-36.278L75.823 164.9a51.597 51.597 0 0 0 11.128-16.645l9.83-23.73a51.238 51.238 0 0 1 27.764-27.761l23.712-9.826a51.39 51.39 0 0 0 16.656-11.128l18.144-18.144a51.313 51.313 0 0 1 36.292-15.031h25.669a51.436 51.436 0 0 0 19.637-3.907l23.719-9.826a51.36 51.36 0 0 1 39.27 0l23.719 9.826a51.354 51.354 0 0 0 19.636 3.907h25.67a51.277 51.277 0 0 1 36.273 15.031l18.163 18.144a51.43 51.43 0 0 0 16.637 11.128l23.73 9.826a51.296 51.296 0 0 1 27.765 27.761l9.83 23.73a51.363 51.363 0 0 0 11.127 16.645l18.145 18.155a51.291 51.291 0 0 1 15.027 36.278v25.676a51.341 51.341 0 0 0 3.903 19.63l9.83 23.718a51.36 51.36 0 0 1 0 39.27z" id="Stroke-3"/></g></g></g></g></svg>